<?xml version="1.0" encoding="UTF-8" standalone="no"?>
<!DOCTYPE svg PUBLIC "-//W3C//DTD SVG 1.1//EN" "http://www.w3.org/Graphics/SVG/1.1/DTD/svg11.dtd">
<svg width="1000px" height="1000px" viewBox="0 0 1000 1000" version="1.1" xmlns="http://www.w3.org/2000/svg" xmlns:xlink="http://www.w3.org/1999/xlink" xml:space="preserve" xmlns:serif="http://www.serif.com/" style="fill-rule:evenodd;clip-rule:evenodd;stroke-linejoin:round;stroke-miterlimit:2;">
    <rect id="Artboard1" x="0" y="0" width="1000" height="1000" style="fill:none;"/>
    <clipPath id="_clip1">
        <rect id="Artboard11" serif:id="Artboard1" x="0" y="0" width="1000" height="1000"/>
    </clipPath>
    <g clip-path="url(#_clip1)" style="fill:#f2f2f2;">
        <g>
            <g>
                <g>
                    <path d="M5.365,890.911L18.765,881.713L69.285,842.067C81.795,832.248 91.392,826.288 99.77,817.781C105.28,812.185 110.275,805.515 115.194,796.034C120.802,785.197 122.477,772.454 121.441,760.108C120.356,747.19 116.306,734.727 110.875,725.424L100.868,705.374C92.091,689.651 79.892,675.907 64.554,666.869C50.004,658.296 32.631,653.931 12.627,656.131C4.312,657.045 -3.533,659.648 -11.087,663.151C-21.835,668.134 -31.99,674.957 -42.13,681.072C-50.494,686.126 -58.539,691.65 -66.408,697.414C-82.801,709.422 -98.465,722.421 -114.735,734.262C-116.36,735.445 -118.302,736.274 -119.623,737.784C-119.81,737.998 -119.84,738.203 -119.972,738.454C-121.421,739.462 -121.779,741.458 -120.771,742.907C-119.762,744.356 -117.767,744.714 -116.318,743.705C-116.033,743.668 -115.827,743.706 -115.558,743.603C-113.652,742.869 -112.199,741.274 -110.534,740.084C-94.157,728.369 -78.49,715.343 -62.06,703.364C-54.354,697.744 -46.488,692.344 -38.304,687.413C-28.394,681.428 -18.484,674.727 -7.979,669.847C-1.155,666.678 5.921,664.284 13.434,663.453C31.688,661.434 47.549,665.377 60.834,673.188C75.073,681.561 86.358,694.344 94.518,708.923L104.62,729.083C109.589,737.56 113.27,748.933 114.281,760.716C115.226,771.72 113.852,783.099 108.872,792.77C104.376,801.522 99.813,807.695 94.762,812.874C86.616,821.226 77.245,827.069 65.074,836.732L14.767,876.751C11.918,879.144 8.724,881.187 5.788,883.526C4.446,884.596 3.187,885.739 1.971,886.931C0.873,887.867 0.741,889.519 1.678,890.618C2.614,891.716 4.266,891.847 5.365,890.911Z" />
                    <path d="M4.984,887.827C5.096,887.438 5.355,887.236 5.416,886.804C5.586,885.621 5.459,884.283 5.56,882.821C5.81,879.202 6.469,874.912 7.365,870.421C9.314,860.651 12.244,850.004 14.034,843.411C14.592,841.322 13.348,839.174 11.26,838.617C9.171,838.059 7.023,839.303 6.465,841.391C4.429,849.238 0.556,862.625 -0.788,873.827C-1.414,879.049 -1.599,883.835 -0.82,887.371C-0.759,887.649 -0.751,887.94 -0.606,888.171C-0.383,888.529 -0.233,888.622 0.073,888.885C0.365,890.24 1.702,891.103 3.057,890.812C4.412,890.52 5.276,889.183 4.984,887.827Z" />
                    <path d="M20.493,844.132C19.058,843.626 17.742,842.893 16.488,842.067C13.913,840.371 11.59,838.286 9.185,836.578C5.568,834.009 2.13,831.246 -1.214,828.385C-6.317,824.019 -11.189,819.417 -16.045,814.831C-22.913,808.365 -29.175,801.185 -34.986,793.618C-43.763,782.187 -51.506,769.868 -58.705,757.736C-61.683,752.72 -65.224,747.322 -67.846,741.632C-69.502,738.038 -70.789,734.329 -71.261,730.521C-71.456,728.957 -72.885,727.845 -74.45,728.04C-76.014,728.235 -77.126,729.664 -76.931,731.229C-76.381,735.609 -74.929,739.887 -73.018,744.019C-70.305,749.887 -66.659,755.462 -63.58,760.634C-56.247,772.944 -48.361,785.442 -39.421,797.032C-33.411,804.824 -26.924,812.204 -19.821,818.854C-14.871,823.472 -9.914,828.122 -4.701,832.498C-1.206,835.432 2.404,838.24 6.187,840.856C8.659,842.565 11.06,844.652 13.704,846.349C15.636,847.589 17.689,848.633 19.958,849.252C22.302,849.891 23.564,848.666 23.917,847.888C24.144,847.386 24.379,846.556 23.862,845.394C23.306,844.124 21.823,843.545 20.553,844.102L20.493,844.132ZM21.052,844.316L21.31,844.397C21.393,844.42 21.517,844.516 21.528,844.454C21.581,844.157 21.341,844.187 21.052,844.316Z" />
                    <path d="M21.397,738.523C21.15,737.612 17.866,739.034 17.046,739.828C16.51,740.346 16.186,741.016 16.015,741.813C15.857,742.547 15.982,743.779 16.895,745.164C17.912,746.707 21.28,749.665 21.831,750.539C22.401,751.352 25.363,756.6 27.101,758.246C28.588,759.654 30.126,759.859 31.056,759.705C31.364,759.654 34.342,758.663 34.29,755.374L34.283,755.163C35.506,752.671 37.722,748.552 39.024,745.719C40.097,743.386 40.392,741.485 40.328,740.934C40.128,739.278 38.998,737.892 36.794,737.463C35.288,737.17 32.441,737.752 31.787,737.8C29.452,737.975 26.821,737.737 24.357,737.979C23.341,738.079 22.348,738.249 21.397,738.523ZM33.991,749.689C34.021,749.653 33.982,749.534 33.983,749.491L33.991,749.689Z" />
                    <path d="M66.328,752.754L66.333,752.759C66.389,752.814 66.489,752.651 66.585,752.541C67.425,751.581 68.874,749.145 69.382,746.746C69.753,744.416 69.421,741.933 68.377,739.74C67.368,737.618 65.779,735.743 63.711,734.535C59.239,731.894 55.206,731.05 51.375,731.417C45.859,731.946 40.694,735.057 35.29,739.43C34.161,740.322 33.968,741.963 34.86,743.093C35.752,744.223 37.393,744.416 38.523,743.524C42.289,740.614 45.834,738.234 49.55,737.344C52.979,736.522 56.5,737.168 60.446,739.764C61.389,740.391 62.042,741.351 62.469,742.375C62.893,743.392 63.022,744.518 62.812,745.567C62.606,746.969 61.662,748.319 61.325,748.975C61.055,749.501 60.889,749.835 60.863,749.962C60.497,751.726 60.832,752.713 61.238,753.068C61.86,753.611 62.395,754.363 63.386,754.258C63.725,754.222 64.629,754.561 65.448,753.705C65.819,753.446 66.115,753.121 66.328,752.754ZM64.88,748.379C65.317,748.559 65.716,748.843 66.036,749.224C65.851,748.937 65.472,748.578 64.88,748.379Z" />
                    <path d="M38.255,743.516C38.254,743.596 38.231,743.656 38.182,743.69C38.182,743.69 41.875,740.927 41.875,740.927C43.691,739.097 45.992,737.442 47.737,735.41C49.233,733.667 50.316,731.665 50.778,729.322C51.973,723.16 49.234,716.282 44.798,713.109C41.332,710.631 36.828,710.089 31.752,713.356C30.002,714.574 29.57,716.983 30.787,718.733C32.005,720.483 34.414,720.915 36.164,719.698C37.25,718.861 38.223,718.314 39.195,718.37C40.274,718.433 41.203,719.05 41.955,719.89C43.782,721.931 44.735,725.188 44.247,728.15C44.048,729.374 43.451,730.393 42.725,731.339C41.179,733.352 39.143,735.093 37.556,736.95L34.202,740.214C34.139,740.343 33.683,741.1 33.603,741.409C33.182,743.037 33.895,743.976 34.331,744.334C34.558,744.52 35.989,745.774 37.756,744.153C37.962,743.964 38.129,743.749 38.255,743.516ZM34.511,740.326C34.465,740.359 34.414,740.401 34.36,740.451L34.511,740.326Z" />
                    <path d="M38.805,798.668C37.889,799.63 36.415,799.783 34.79,799.915C32.337,800.113 29.458,799.723 26.633,798.925C21.838,797.569 17.089,795.228 15.675,792.447C14.801,790.73 15.168,789.042 15.855,787.425C17.034,784.647 19.349,782.143 20.826,779.682C21.344,778.82 21.731,777.959 22.063,777.139C22.964,775.487 22.354,773.414 20.702,772.513C19.05,771.612 16.977,772.222 16.075,773.874C15.626,774.53 15.019,775.14 14.469,775.874C12.009,779.153 9.329,783.197 8.432,787.21C7.81,789.997 7.97,792.843 9.507,795.686C11.979,800.24 20.387,804.848 28.39,805.928C31.547,806.354 34.618,806.335 37.115,805.589C39.547,804.862 41.51,803.629 42.717,801.821C43.587,800.741 43.417,799.159 42.337,798.289C41.258,797.419 39.675,797.589 38.805,798.668Z" />
                    <path d="M-23.157,743.422L-23.152,743.422C-23.037,743.408 -23.283,743.254 -23.332,743.181L-23.157,743.422C-25.953,743.754 -21.201,735.121 -20.469,733.423L-17.999,727.887C-16.454,726.812 -16.073,724.684 -17.148,723.139C-18.223,721.594 -20.35,721.212 -21.895,722.288C-22.868,722.842 -23.788,723.809 -24.602,725.002C-25.787,726.741 -26.595,729.142 -27.213,730.602C-27.904,732.302 -29.579,736.957 -30.069,740.661C-30.44,743.464 -30.018,745.861 -29.074,747.176C-26.241,751.086 -20.726,754.125 -14.87,755.065C-8.959,756.012 -2.857,754.916 0.9,751.281C2.066,750.211 2.143,748.396 1.072,747.23C0.002,746.065 -1.813,745.988 -2.978,747.058C-5.615,749.356 -9.781,749.519 -13.703,748.708C-17.553,747.911 -21.269,746.041 -23.157,743.422Z" />
                </g>
                <g>
                    <path d="M1005.34,890.911L1018.74,881.713L1069.26,842.067C1081.77,832.248 1091.37,826.288 1099.74,817.781C1105.25,812.185 1110.25,805.515 1115.17,796.034C1120.78,785.197 1122.45,772.454 1121.41,760.108C1120.33,747.19 1116.28,734.727 1110.85,725.424L1100.84,705.374C1092.06,689.651 1079.87,675.907 1064.53,666.869C1049.98,658.296 1032.61,653.931 1012.6,656.131C1004.28,657.045 996.44,659.648 988.887,663.151C978.138,668.134 967.983,674.957 957.843,681.072C949.479,686.126 941.434,691.65 933.565,697.414C917.173,709.422 901.508,722.421 885.239,734.262C883.613,735.445 881.671,736.274 880.35,737.784C880.164,737.998 880.134,738.203 880.002,738.454C878.552,739.462 878.194,741.458 879.203,742.907C880.211,744.356 882.206,744.714 883.655,743.705C883.941,743.668 884.146,743.706 884.415,743.603C886.321,742.869 887.774,741.274 889.439,740.084C905.817,728.369 921.483,715.343 937.913,703.364C945.619,697.744 953.486,692.344 961.669,687.413C971.579,681.428 981.489,674.727 991.994,669.847C998.818,666.678 1005.89,664.284 1013.41,663.453C1031.66,661.434 1047.52,665.377 1060.81,673.188C1075.05,681.561 1086.33,694.344 1094.49,708.923L1104.59,729.083C1109.56,737.56 1113.24,748.933 1114.25,760.716C1115.2,771.72 1113.83,783.099 1108.85,792.77C1104.35,801.522 1099.79,807.695 1094.74,812.874C1086.59,821.226 1077.22,827.069 1065.05,836.732L1014.74,876.751C1011.89,879.144 1008.7,881.187 1005.76,883.526C1004.42,884.596 1003.16,885.739 1001.94,886.931C1000.85,887.867 1000.72,889.519 1001.65,890.618C1002.59,891.716 1004.24,891.847 1005.34,890.911Z" />
                    <path d="M927.009,740.524C927.088,740.487 927.143,740.452 927.143,740.452C927.143,740.452 927.41,740.083 927.073,739.946C926.123,739.562 923.578,740.004 923.008,739.958L913.4,739.665L883.08,739.214C881.831,738.613 880.329,739.139 879.728,740.389C879.127,741.638 879.653,743.14 880.902,743.741C881.697,744.387 882.681,744.942 883.959,745.449C885.832,746.191 888.26,746.544 890.902,746.863C898.215,747.747 907.471,747.473 912.604,748.086L922.181,748.707C922.894,748.784 926.104,749.385 927.27,748.851C927.923,748.552 927.972,748.502 928.114,748.303C928.508,747.753 928.935,748.283 929.036,748.034C929.234,747.549 929.759,747.973 929.815,747.634C929.872,747.292 930.317,747.524 930.317,747.241C930.318,746.537 931.269,746.772 931.094,746.25C930.968,745.873 931.579,745.858 931.397,745.54C930.941,744.746 932.274,744.251 931.529,743.755C931.349,743.635 931.633,743.422 931.434,743.32C931.148,743.174 931.528,742.791 931.198,742.689C930.912,742.6 931.205,742.181 930.877,742.136C929.983,740.852 928.455,740.271 927.009,740.524ZM923.919,745.401L923.955,745.539L924.087,745.895C923.909,745.764 923.771,745.642 923.916,745.408L923.919,745.401ZM923.811,744.874L923.807,744.878C923.723,744.979 923.786,745.054 923.852,745.132L923.811,744.874ZM923.866,743.544L923.859,743.552C923.566,743.724 923.669,743.934 923.784,744.165C923.794,743.956 923.821,743.748 923.866,743.544ZM923.988,743.104L923.98,743.11C923.871,743.159 923.894,743.245 923.915,743.334L923.92,743.31L923.988,743.104ZM924.167,742.664L924.162,742.666C924.039,742.703 924.054,742.799 924.064,742.895L924.167,742.664ZM924.592,741.974L924.377,742.28L924.349,742.329C924.359,742.161 924.36,741.993 924.59,741.974L924.592,741.974ZM925.538,741.105L925.447,741.162C925.263,741.29 925.093,741.431 924.941,741.587C925.033,741.307 925.097,740.997 925.527,741.104L925.538,741.105ZM926.32,740.71L926.137,740.778L925.8,740.944C925.913,740.776 926.015,740.561 926.301,740.706L926.32,740.71ZM926.628,740.61L926.603,740.602C926.507,740.542 926.46,740.629 926.405,740.679L926.499,740.644L926.628,740.61Z" />
                    <path d="M1004.96,887.827C1005.07,887.438 1005.33,887.236 1005.39,886.804C1005.56,885.621 1005.43,884.283 1005.53,882.821C1005.78,879.202 1006.44,874.912 1007.34,870.421C1009.29,860.651 1012.22,850.004 1014.01,843.411C1014.57,841.322 1013.32,839.174 1011.23,838.617C1009.14,838.059 1007,839.303 1006.44,841.391C1004.4,849.238 1000.53,862.625 999.185,873.827C998.559,879.049 998.375,883.835 999.153,887.371C999.214,887.649 999.223,887.94 999.367,888.171C999.59,888.529 999.741,888.622 1000.05,888.885C1000.34,890.24 1001.68,891.103 1003.03,890.812C1004.39,890.52 1005.25,889.183 1004.96,887.827Z" />
                    <path d="M1020.47,844.132C1019.03,843.626 1017.72,842.893 1016.46,842.067C1013.89,840.371 1011.56,838.286 1009.16,836.578C1005.54,834.009 1002.1,831.246 998.759,828.385C993.657,824.019 988.784,819.417 983.929,814.831C977.06,808.365 970.798,801.185 964.988,793.618C956.211,782.187 948.467,769.868 941.268,757.736C938.291,752.72 934.749,747.322 932.127,741.632C930.471,738.038 929.185,734.329 928.712,730.521C928.517,728.957 927.088,727.845 925.524,728.04C923.959,728.235 922.847,729.664 923.043,731.229C923.592,735.609 925.044,739.887 926.955,744.019C929.669,749.887 933.314,755.462 936.394,760.634C943.726,772.944 951.612,785.442 960.552,797.032C966.562,804.824 973.049,812.204 980.152,818.854C985.103,823.472 990.059,828.122 995.272,832.498C998.767,835.432 1002.38,838.24 1006.16,840.856C1008.63,842.565 1011.03,844.652 1013.68,846.349C1015.61,847.589 1017.66,848.633 1019.93,849.252C1022.27,849.891 1023.54,848.666 1023.89,847.888C1024.12,847.386 1024.35,846.556 1023.84,845.394C1023.28,844.124 1021.8,843.545 1020.53,844.102L1020.47,844.132ZM1021.02,844.316L1021.28,844.397C1021.37,844.42 1021.49,844.516 1021.5,844.454C1021.56,844.157 1021.31,844.187 1021.02,844.316Z" />
                    <path d="M1038.78,798.668C1037.86,799.63 1036.39,799.783 1034.76,799.915C1032.31,800.113 1029.43,799.723 1026.61,798.925C1021.81,797.569 1017.06,795.228 1015.65,792.447C1014.77,790.73 1015.14,789.042 1015.83,787.425C1017.01,784.647 1019.32,782.143 1020.8,779.682C1021.32,778.82 1021.7,777.959 1022.04,777.139C1022.94,775.487 1022.33,773.414 1020.68,772.513C1019.02,771.612 1016.95,772.222 1016.05,773.874C1015.6,774.53 1014.99,775.14 1014.44,775.874C1011.98,779.153 1009.3,783.197 1008.41,787.21C1007.78,789.997 1007.94,792.843 1009.48,795.686C1011.95,800.24 1020.36,804.848 1028.36,805.928C1031.52,806.354 1034.59,806.335 1037.09,805.589C1039.52,804.862 1041.48,803.629 1042.69,801.821C1043.56,800.741 1043.39,799.159 1042.31,798.289C1041.23,797.419 1039.65,797.589 1038.78,798.668Z" />
                    <path d="M976.817,743.422L976.821,743.422C976.936,743.408 976.69,743.254 976.641,743.181L976.817,743.422C974.02,743.754 978.772,735.121 979.504,733.423L981.974,727.887C983.519,726.812 983.901,724.684 982.826,723.139C981.75,721.594 979.623,721.212 978.078,722.288C977.105,722.842 976.185,723.809 975.372,725.002C974.186,726.741 973.379,729.142 972.76,730.602C972.069,732.302 970.394,736.957 969.904,740.661C969.533,743.464 969.956,745.861 970.9,747.176C973.732,751.086 979.247,754.125 985.104,755.065C991.014,756.012 997.117,754.916 1000.87,751.281C1002.04,750.211 1002.12,748.396 1001.05,747.23C999.975,746.065 998.16,745.988 996.995,747.058C994.358,749.356 990.192,749.519 986.27,748.708C982.421,747.911 978.704,746.041 976.817,743.422Z" />
                </g>
            </g>
            <g>
                <path d="M225.428,369.759L218.952,384.667L197.177,445.082C191.786,460.043 186.815,470.187 184.23,481.844C182.53,489.511 181.837,497.815 182.7,508.461C183.698,520.623 189.042,532.312 196.473,542.225C204.248,552.598 214.296,561.011 223.836,566.013L242.959,577.695C258.743,586.363 276.376,591.537 294.172,591.056C311.054,590.6 328.095,585.079 343.882,572.597C350.444,567.409 355.71,561.039 360.254,554.062C366.718,544.133 371.703,532.96 377.053,522.397C381.459,513.674 385.345,504.722 388.955,495.66C396.475,476.783 402.852,457.452 410.357,438.782C411.106,436.917 412.312,435.183 412.63,433.202C412.675,432.922 412.592,432.732 412.57,432.449C413.263,430.826 412.508,428.945 410.884,428.252C409.26,427.559 407.379,428.314 406.686,429.938C406.464,430.121 406.27,430.198 406.097,430.428C404.871,432.062 404.486,434.185 403.707,436.077C396.044,454.698 389.679,474.053 382.113,492.926C378.564,501.778 374.763,510.531 370.444,519.053C365.221,529.385 360.379,540.324 354.066,550.035C349.964,556.343 345.237,562.127 339.311,566.819C324.912,578.219 309.376,583.296 293.971,583.726C277.459,584.187 261.111,579.342 246.457,571.317L227.195,559.593C218.485,555.045 209.329,547.359 202.218,537.91C195.577,529.085 190.702,518.712 189.79,507.872C188.955,498.068 189.546,490.415 191.078,483.345C193.55,471.942 198.391,462.017 203.577,447.368L224.975,386.75C226.119,383.21 227.742,379.783 228.989,376.242C229.558,374.624 230.018,372.987 230.417,371.331C230.851,369.954 230.085,368.484 228.708,368.05C227.332,367.617 225.862,368.382 225.428,369.759Z" />
                <path d="M371.631,455.644C371.584,455.717 371.556,455.776 371.556,455.776C371.556,455.776 371.526,456.231 371.884,456.167C372.893,455.989 374.815,454.264 375.323,454L383.622,449.149L409.558,433.439C410.935,433.285 411.929,432.042 411.776,430.664C411.622,429.287 410.379,428.293 409.001,428.446C407.985,428.321 406.856,428.373 405.504,428.622C403.523,428.986 401.277,429.976 398.869,431.107C392.202,434.24 384.502,439.385 379.827,441.59L371.38,446.146C370.735,446.459 367.696,447.654 366.991,448.725C366.596,449.325 366.581,449.393 366.566,449.637C366.524,450.313 365.882,450.09 365.928,450.355C366.018,450.871 365.347,450.791 365.479,451.107C365.613,451.427 365.112,451.467 365.262,451.707C365.636,452.304 364.705,452.609 365.131,452.959C365.437,453.211 364.927,453.549 365.25,453.721C366.058,454.153 365.191,455.28 366.085,455.304C366.302,455.31 366.175,455.642 366.396,455.623C366.717,455.595 366.599,456.121 366.932,456.033C367.222,455.956 367.195,456.467 367.498,456.331C368.936,456.944 370.54,456.626 371.631,455.644ZM372,455.272L371.908,455.369L371.934,455.362C372.047,455.362 372.041,455.264 372.061,455.192L372,455.272ZM372.235,454.966L372.433,454.647C372.426,454.849 372.454,455.085 372.135,455.114L372.117,455.12L372.235,454.966ZM372.82,453.646C372.891,453.931 373.001,454.229 372.58,454.366L372.57,454.37L372.617,454.274C372.705,454.068 372.774,453.858 372.82,453.646ZM372.93,452.758L372.928,452.703C373.009,452.85 373.096,452.993 372.912,453.131L372.911,453.132L372.93,452.758ZM372.869,452.072L372.905,452.322L372.908,452.318C372.992,452.221 372.928,452.148 372.869,452.072ZM372.771,451.643L372.822,451.854L372.826,451.844C372.893,451.745 372.827,451.684 372.763,451.62L372.771,451.643ZM372.432,450.846C372.535,451.029 372.622,451.219 372.692,451.416L372.695,451.406C372.851,451.105 372.652,450.982 372.432,450.846ZM371.861,450.063L372.034,450.26L372.034,450.254C372.052,450.124 371.959,450.094 371.861,450.063ZM371.558,449.772L371.257,449.541C371.477,449.558 371.659,449.588 371.66,449.863L371.662,449.87L371.558,449.772Z" />
                <path d="M227.388,372.17C227.499,372.56 227.387,372.869 227.564,373.267C228.049,374.36 228.866,375.427 229.556,376.719C231.265,379.919 232.984,383.905 234.607,388.186C238.141,397.501 241.309,408.08 243.291,414.618C243.927,416.684 246.121,417.845 248.187,417.209C250.253,416.572 251.414,414.379 250.777,412.313C248.339,404.581 244.516,391.18 239.71,380.972C237.469,376.215 235.085,372.06 232.549,369.476C232.35,369.273 232.188,369.032 231.943,368.912C231.564,368.727 231.387,368.728 230.989,368.667C230.022,367.674 228.43,367.652 227.437,368.618C226.443,369.585 226.421,371.176 227.388,372.17Z" />
                <path d="M237.434,417.435C238.919,417.102 240.423,417.025 241.925,417.059C245.006,417.13 248.083,417.664 251.027,417.836C255.456,418.093 259.837,418.61 264.19,419.26C270.831,420.252 277.403,421.566 283.952,422.877C293.205,424.711 302.323,427.472 311.264,430.802C324.77,435.832 337.871,442.163 350.411,448.624C355.597,451.295 361.463,453.991 366.706,457.422C370.016,459.588 373.076,462.05 375.497,465.026C376.493,466.248 378.293,466.432 379.516,465.436C380.738,464.44 380.922,462.639 379.926,461.417C377.136,457.996 373.635,455.141 369.822,452.653C364.408,449.12 358.359,446.33 353.004,443.581C340.257,437.04 326.94,430.632 313.212,425.555C303.982,422.141 294.567,419.328 285.018,417.462C278.371,416.176 271.703,414.866 264.961,413.923C260.443,413.291 255.892,412.828 251.297,412.618C248.295,412.482 245.153,411.987 242.011,411.952C239.716,411.927 237.421,412.132 235.17,412.812C232.844,413.514 232.425,415.222 232.539,416.069C232.612,416.615 232.854,417.443 233.909,418.153C235.054,418.934 236.618,418.638 237.399,417.492L237.434,417.435ZM236.863,417.575L236.601,417.644C236.518,417.668 236.362,417.652 236.386,417.712C236.498,417.991 236.686,417.838 236.863,417.575Z" />
                <path d="M272.966,500.158C273.252,502.919 273.561,507.586 273.96,510.678C274.289,513.225 275.049,514.993 275.395,515.425C276.443,516.723 278.137,517.298 280.232,516.492C281.664,515.941 283.768,513.937 284.296,513.549C286.183,512.161 288.54,510.967 290.499,509.453C291.307,508.829 292.059,508.158 292.719,507.421C293.412,508.062 295.441,505.114 295.714,504.007C295.893,503.282 295.812,502.543 295.534,501.777C295.279,501.071 294.519,500.092 293.011,499.404C291.329,498.636 286.905,497.917 285.973,497.468C285.059,497.081 279.764,494.206 277.417,493.733C275.41,493.328 273.997,493.971 273.29,494.596C273.057,494.802 271.059,497.223 272.849,499.983L272.966,500.158ZM276.119,504.643C276.112,504.689 276.209,504.769 276.231,504.805L276.119,504.643Z" />
                <path d="M247.086,519.208L247.078,519.206C247.002,519.189 247.004,519.379 246.981,519.524C246.778,520.783 246.843,523.618 247.686,525.92C248.608,528.091 250.208,530.019 252.256,531.325C254.238,532.587 256.58,533.333 258.974,533.26C264.165,533.124 268.031,531.699 271.083,529.354C275.477,525.979 278.204,520.601 280.463,514.027C280.947,512.671 280.239,511.178 278.884,510.694C277.528,510.209 276.035,510.917 275.551,512.272C273.903,516.738 272.161,520.636 269.485,523.363C267.014,525.88 263.688,527.2 258.965,527.095C257.833,527.064 256.771,526.597 255.865,525.955C254.965,525.318 254.259,524.433 253.879,523.432C253.31,522.135 253.394,520.489 253.331,519.755C253.281,519.166 253.244,518.794 253.199,518.673C252.573,516.984 251.766,516.325 251.233,516.24C250.418,516.109 249.565,515.756 248.781,516.371C248.513,516.581 247.567,516.774 247.327,517.934C247.15,518.35 247.072,518.783 247.086,519.208ZM249.207,522.044C249.516,522.189 250.027,522.293 250.635,522.147C250.169,522.226 249.68,522.197 249.207,522.044Z" />
                <path d="M275.782,512.137C275.74,512.069 275.728,512.006 275.751,511.951C275.751,511.951 274.087,516.253 274.087,516.253C273.52,518.767 272.447,521.391 272.047,524.04C271.704,526.311 271.849,528.582 272.702,530.814C274.958,536.67 280.931,541.046 286.374,541.38C290.627,541.641 294.732,539.71 297.3,534.247C298.137,532.286 297.225,530.015 295.264,529.178C293.303,528.341 291.032,529.254 290.195,531.214C289.719,532.499 289.184,533.48 288.331,533.948C287.383,534.468 286.268,534.438 285.185,534.125C282.553,533.364 280.017,531.11 278.859,528.34C278.377,527.197 278.342,526.017 278.456,524.83C278.698,522.303 279.5,519.747 279.858,517.331L280.969,512.784C280.954,512.642 280.939,511.758 280.842,511.454C280.335,509.851 279.232,509.433 278.673,509.361C278.382,509.324 276.504,509.021 275.867,511.332C275.792,511.602 275.765,511.873 275.782,512.137ZM280.648,512.854C280.669,512.801 280.69,512.739 280.71,512.667L280.648,512.854Z" />
                <path d="M246.043,465.686C246.31,464.384 247.478,463.472 248.785,462.499C250.759,461.029 253.405,459.831 256.224,459.008C261.007,457.612 266.275,457.076 268.949,458.683C270.601,459.673 271.185,461.299 271.462,463.035C271.936,466.014 271.304,469.365 271.358,472.235C271.377,473.241 271.506,474.175 271.659,475.047C271.772,476.925 273.39,478.359 275.268,478.245C277.147,478.132 278.58,476.515 278.467,474.636C278.5,473.842 278.691,473.002 278.767,472.089C279.112,468.004 279.237,463.154 277.867,459.277C276.915,456.584 275.269,454.257 272.457,452.664C267.945,450.116 258.374,450.673 251.018,454.005C248.116,455.32 245.523,456.966 243.803,458.923C242.128,460.83 241.118,462.917 241.055,465.09C240.891,466.467 241.875,467.718 243.251,467.882C244.628,468.047 245.879,467.063 246.043,465.686Z" />
                <path d="M327.88,479.622L327.876,479.625C327.786,479.698 328.076,479.698 328.157,479.734L327.88,479.622C330.074,477.857 330.628,487.696 330.909,489.524L331.754,495.527C331.015,497.258 331.821,499.264 333.552,500.002C335.283,500.741 337.289,499.936 338.028,498.204C338.558,497.218 338.825,495.91 338.881,494.468C338.962,492.364 338.372,489.901 338.122,488.336C337.805,486.527 336.755,481.694 335.204,478.294C334.03,475.721 332.4,473.915 330.902,473.301C326.427,471.491 320.139,471.841 314.677,474.154C309.165,476.488 304.574,480.655 303.32,485.73C302.9,487.256 303.798,488.835 305.324,489.255C306.849,489.674 308.428,488.776 308.848,487.251C309.863,483.903 313.307,481.554 317.062,480.16C320.747,478.792 324.89,478.405 327.88,479.622Z" />
            </g>
            <g>
                <g>
                    <path d="M739.813,-107.955L723.628,-106.467L660.184,-96.517C644.473,-94.052 633.188,-93.534 621.724,-90.197C614.184,-88.002 606.569,-84.618 597.649,-78.743C587.464,-72.022 579.784,-61.716 574.663,-50.435C569.305,-38.63 566.758,-25.775 566.958,-15.005L565.908,7.379C565.895,25.386 569.835,43.335 578.812,58.709C587.328,73.293 600.361,85.581 618.895,93.424C626.599,96.684 634.716,98.24 643.019,98.869C654.832,99.765 667.026,98.766 678.861,98.378C688.627,98.048 698.345,97.153 708.027,95.962C728.195,93.48 748.211,89.779 768.19,87.385C770.186,87.145 772.285,87.37 774.176,86.696C774.443,86.601 774.569,86.436 774.807,86.282C776.564,86.109 777.85,84.542 777.677,82.785C777.504,81.028 775.937,79.742 774.18,79.915C773.913,79.808 773.752,79.675 773.467,79.634C771.445,79.344 769.399,80.027 767.365,80.253C747.353,82.485 727.322,86.209 707.135,88.647C697.666,89.791 688.165,90.666 678.615,90.976C667.045,91.363 655.125,92.376 643.574,91.508C636.072,90.944 628.727,89.58 621.764,86.638C604.846,79.492 592.926,68.31 585.143,55.009C576.801,40.752 573.19,24.087 573.182,7.38L574.203,-15.146C574.004,-24.971 576.341,-36.694 581.209,-47.471C585.755,-57.537 592.507,-66.799 601.574,-72.809C609.769,-78.254 616.764,-81.415 623.7,-83.47C634.887,-86.785 645.917,-87.312 661.256,-89.806L724.696,-100.184C728.351,-100.883 732.135,-101.107 735.84,-101.716C737.533,-101.994 739.189,-102.378 740.833,-102.825C742.249,-103.106 743.169,-104.484 742.888,-105.9C742.607,-107.315 741.229,-108.236 739.813,-107.955Z" />
                    <path d="M734.788,61.534C734.701,61.528 734.635,61.532 734.635,61.532C734.635,61.532 734.222,61.723 734.45,62.007C735.091,62.806 737.528,63.662 738.004,63.981L746.247,68.925L772.491,84.116C773.288,85.25 774.856,85.524 775.99,84.727C777.124,83.93 777.398,82.362 776.601,81.227C776.223,80.276 775.635,79.311 774.766,78.245C773.494,76.683 771.547,75.19 769.397,73.622C763.445,69.282 755.232,65.004 751.051,61.964L742.995,56.747C742.41,56.332 739.902,54.242 738.623,54.139C737.908,54.081 737.841,54.1 737.619,54.205C737.007,54.493 736.893,53.822 736.684,53.99C736.274,54.317 736.022,53.69 735.808,53.958C735.592,54.229 735.317,53.809 735.178,54.057C734.834,54.671 734.119,54.001 734.017,54.543C733.943,54.933 733.402,54.648 733.406,55.014C733.416,55.93 732.011,55.712 732.419,56.507C732.518,56.7 732.166,56.748 732.29,56.933C732.468,57.201 731.95,57.35 732.188,57.6C732.395,57.817 731.933,58.04 732.199,58.24C732.352,59.796 733.402,61.049 734.788,61.534ZM737.111,61.616C736.895,61.815 736.687,62.054 736.364,61.751L736.356,61.744L736.462,61.739C736.685,61.717 736.902,61.677 737.111,61.616ZM735.48,61.708L735.673,61.737L736.047,61.757C735.867,61.849 735.673,61.986 735.495,61.721L735.48,61.708ZM735.162,61.645L735.18,61.664C735.235,61.763 735.318,61.71 735.391,61.694L735.291,61.678L735.162,61.645ZM737.943,61.286L737.99,61.257C737.9,61.398 737.817,61.544 737.607,61.449L737.605,61.448L737.943,61.286ZM738.515,60.901L738.313,61.053L738.318,61.054C738.443,61.082 738.477,60.99 738.515,60.901ZM738.844,60.61L738.683,60.756L738.694,60.755C738.812,60.766 738.834,60.679 738.86,60.592L738.844,60.61ZM739.38,59.93C739.269,60.107 739.144,60.275 739.005,60.431L739.015,60.429C739.354,60.421 739.367,60.188 739.38,59.93ZM739.792,59.052L739.702,59.298L739.707,59.296C739.83,59.249 739.811,59.153 739.792,59.052ZM739.901,58.647L739.959,58.272C740.05,58.473 740.111,58.647 739.871,58.78L739.865,58.785L739.901,58.647Z" />
                    <path d="M703.779,-74.508C704.784,-73.366 705.575,-72.084 706.267,-70.751C707.687,-68.014 708.697,-65.06 709.962,-62.396C711.866,-58.389 713.518,-54.298 715.041,-50.169C717.364,-43.869 719.371,-37.474 721.37,-31.102C724.21,-22.106 726.172,-12.783 727.55,-3.343C729.632,10.918 730.379,25.449 730.742,39.552C730.893,45.383 731.349,51.823 730.861,58.069C730.552,62.014 729.865,65.88 728.419,69.433C727.826,70.894 728.531,72.562 729.991,73.155C731.452,73.748 733.12,73.044 733.713,71.583C735.371,67.491 736.192,63.049 736.54,58.509C737.036,52.064 736.575,45.418 736.411,39.401C736.018,25.079 735.235,10.321 733.088,-4.157C731.644,-13.892 729.584,-23.5 726.63,-32.77C724.563,-39.217 722.506,-45.694 720.092,-52.058C718.473,-56.324 716.692,-60.538 714.667,-64.667C713.343,-67.365 712.267,-70.359 710.787,-73.13C709.706,-75.155 708.423,-77.068 706.744,-78.716C705.011,-80.417 703.311,-79.964 702.624,-79.457C702.18,-79.13 701.57,-78.52 701.454,-77.254C701.321,-75.874 702.332,-74.645 703.712,-74.511L703.779,-74.508ZM703.381,-74.941L703.195,-75.138C703.134,-75.199 703.073,-75.343 703.033,-75.294C702.841,-75.061 703.066,-74.97 703.381,-74.941Z" />
                    <path d="M648.323,-3.583C646.039,-2.005 642.096,0.509 639.577,2.346C637.501,3.859 636.316,5.374 636.103,5.886C635.47,7.429 635.779,9.191 637.493,10.64C638.665,11.631 641.434,12.513 642.028,12.789C644.152,13.777 646.332,15.269 648.601,16.259C649.537,16.668 650.486,17.004 651.45,17.229C651.221,18.145 654.781,18.506 655.884,18.214C656.606,18.023 657.215,17.596 657.753,16.984C658.249,16.421 658.742,15.284 658.621,13.63C658.485,11.787 656.99,7.562 656.935,6.529C656.835,5.542 656.811,-0.484 656.097,-2.769C655.487,-4.724 654.244,-5.654 653.356,-5.973C653.063,-6.078 649.98,-6.667 648.421,-3.771L648.323,-3.583ZM645.906,1.337C645.863,1.354 645.839,1.477 645.818,1.514L645.906,1.337Z" />
                    <path d="M619.178,-17.119L619.176,-17.126C619.154,-17.201 618.988,-17.108 618.85,-17.059C617.648,-16.631 615.194,-15.212 613.58,-13.366C612.119,-11.514 611.198,-9.184 611.038,-6.76C610.884,-4.416 611.356,-2.004 612.571,0.06C615.185,4.547 618.294,7.252 621.817,8.801C626.888,11.032 632.916,10.838 639.766,9.657C641.187,9.43 642.157,8.092 641.93,6.67C641.702,5.249 640.364,4.28 638.943,4.507C634.235,5.209 629.98,5.556 626.302,4.519C622.907,3.563 620.15,1.281 617.972,-2.911C617.456,-3.918 617.354,-5.075 617.481,-6.177C617.607,-7.272 618.044,-8.318 618.739,-9.131C619.603,-10.254 621.087,-10.972 621.7,-11.38C622.193,-11.707 622.501,-11.918 622.586,-12.016C623.766,-13.376 623.955,-14.401 623.774,-14.91C623.496,-15.687 623.397,-16.605 622.48,-16.997C622.166,-17.131 621.543,-17.867 620.41,-17.519C619.961,-17.475 619.543,-17.335 619.178,-17.119ZM617.711,-13.896C617.732,-13.555 617.887,-13.057 618.307,-12.594C618.013,-12.965 617.804,-13.407 617.711,-13.896Z" />
                    <path d="M639.173,4.644C639.212,4.575 639.262,4.534 639.321,4.527L634.749,5.137C632.272,5.848 629.455,6.169 626.94,7.092C624.784,7.883 622.862,9.102 621.315,10.922C617.265,15.716 616.299,23.057 618.623,27.991C620.438,31.845 624.105,34.516 630.13,34.142C632.251,33.934 633.805,32.042 633.596,29.92C633.387,27.798 631.495,26.245 629.373,26.454C628.018,26.654 626.901,26.656 626.08,26.133C625.169,25.552 624.659,24.56 624.413,23.46C623.815,20.787 624.572,17.479 626.444,15.132C627.214,14.16 628.233,13.562 629.328,13.091C631.661,12.089 634.287,11.563 636.578,10.716L641.099,9.504C641.216,9.422 641.984,8.984 642.205,8.753C643.367,7.538 643.202,6.37 642.997,5.845C642.89,5.572 642.252,3.78 639.919,4.332C639.647,4.396 639.396,4.503 639.173,4.644ZM640.883,9.256C640.94,9.249 641.005,9.237 641.077,9.22L640.883,9.256Z" />
                    <path d="M692.729,34.697C695.332,35.772 686.971,40.988 685.503,42.113L680.645,45.739C678.772,45.924 677.401,47.594 677.585,49.468C677.769,51.341 679.44,52.712 681.313,52.528C682.433,52.519 683.708,52.124 685,51.479C686.884,50.54 688.76,48.839 690.012,47.866C691.446,46.719 695.179,43.475 697.415,40.48C699.106,38.214 699.907,35.917 699.725,34.308C699.161,29.513 695.831,24.168 691.177,20.491C686.481,16.779 680.62,14.757 675.566,16.097C674.027,16.462 673.074,18.009 673.439,19.548C673.805,21.088 675.351,22.041 676.891,21.675C680.314,20.956 684.029,22.847 687.057,25.469C690.028,28.043 692.359,31.49 692.729,34.697ZM692.729,34.697L692.725,34.695C692.617,34.651 692.757,34.905 692.764,34.993L692.729,34.697Z" />
                </g>
                <g>
                    <path d="M739.813,892.045L723.628,893.533L660.184,903.483C644.473,905.948 633.188,906.466 621.724,909.803C614.184,911.998 606.569,915.382 597.649,921.257C587.464,927.978 579.784,938.284 574.663,949.565C569.305,961.37 566.758,974.225 566.958,984.995L565.908,1007.38C565.895,1025.39 569.835,1043.34 578.812,1058.71C587.328,1073.29 600.361,1085.58 618.895,1093.42C626.599,1096.68 634.716,1098.24 643.019,1098.87C654.832,1099.77 667.026,1098.77 678.861,1098.38C688.627,1098.05 698.345,1097.15 708.027,1095.96C728.195,1093.48 748.211,1089.78 768.19,1087.38C770.186,1087.14 772.285,1087.37 774.176,1086.7C774.443,1086.6 774.569,1086.44 774.807,1086.28C776.564,1086.11 777.85,1084.54 777.677,1082.79C777.504,1081.03 775.937,1079.74 774.18,1079.91C773.913,1079.81 773.752,1079.67 773.467,1079.63C771.445,1079.34 769.399,1080.03 767.365,1080.25C747.353,1082.49 727.322,1086.21 707.135,1088.65C697.666,1089.79 688.165,1090.67 678.615,1090.98C667.045,1091.36 655.125,1092.38 643.574,1091.51C636.072,1090.94 628.727,1089.58 621.764,1086.64C604.846,1079.49 592.926,1068.31 585.143,1055.01C576.801,1040.75 573.19,1024.09 573.182,1007.38L574.203,984.854C574.004,975.029 576.341,963.306 581.209,952.529C585.755,942.463 592.507,933.201 601.574,927.191C609.769,921.746 616.764,918.585 623.7,916.53C634.887,913.215 645.917,912.688 661.256,910.194L724.696,899.816C728.351,899.117 732.135,898.893 735.84,898.284C737.533,898.006 739.189,897.622 740.833,897.175C742.249,896.894 743.169,895.516 742.888,894.1C742.607,892.685 741.229,891.764 739.813,892.045Z" />
                    <path d="M738.641,894.923C738.352,895.207 738.028,895.258 737.764,895.604C737.039,896.555 736.496,897.784 735.694,899.011C733.71,902.047 731.041,905.471 728.068,908.953C721.598,916.53 713.845,924.393 709.065,929.273C707.559,930.824 707.596,933.306 709.147,934.812C710.698,936.318 713.179,936.281 714.685,934.73C720.292,928.875 730.206,919.08 736.846,909.959C739.941,905.707 742.438,901.619 743.484,898.153C743.566,897.881 743.701,897.623 743.688,897.351C743.667,896.93 743.582,896.775 743.443,896.396C743.85,895.071 743.104,893.665 741.779,893.258C740.453,892.851 739.047,893.597 738.641,894.923Z" />
                    <path d="M703.779,925.492C704.784,926.634 705.575,927.916 706.267,929.249C707.687,931.986 708.697,934.94 709.962,937.604C711.866,941.611 713.518,945.702 715.041,949.831C717.364,956.131 719.371,962.526 721.37,968.898C724.21,977.894 726.172,987.217 727.55,996.657C729.632,1010.92 730.379,1025.45 730.742,1039.55C730.893,1045.38 731.349,1051.82 730.861,1058.07C730.552,1062.01 729.865,1065.88 728.419,1069.43C727.826,1070.89 728.531,1072.56 729.991,1073.15C731.452,1073.75 733.12,1073.04 733.713,1071.58C735.371,1067.49 736.192,1063.05 736.54,1058.51C737.036,1052.06 736.575,1045.42 736.411,1039.4C736.018,1025.08 735.235,1010.32 733.088,995.843C731.644,986.108 729.584,976.5 726.63,967.23C724.563,960.783 722.506,954.306 720.092,947.942C718.473,943.676 716.692,939.462 714.667,935.333C713.343,932.635 712.267,929.641 710.787,926.87C709.706,924.845 708.423,922.932 706.744,921.284C705.011,919.583 703.311,920.036 702.624,920.543C702.18,920.87 701.57,921.48 701.454,922.746C701.321,924.126 702.332,925.355 703.712,925.489L703.779,925.492ZM703.381,925.059L703.195,924.862C703.134,924.801 703.073,924.657 703.033,924.706C702.841,924.939 703.066,925.03 703.381,925.059Z" />
                    <path d="M648.323,996.417C646.039,997.995 642.096,1000.51 639.577,1002.35C637.501,1003.86 636.316,1005.37 636.103,1005.89C635.47,1007.43 635.779,1009.19 637.493,1010.64C638.665,1011.63 641.434,1012.51 642.028,1012.79C644.152,1013.78 646.332,1015.27 648.601,1016.26C649.537,1016.67 650.486,1017 651.45,1017.23C651.221,1018.14 654.781,1018.51 655.884,1018.21C656.606,1018.02 657.215,1017.6 657.753,1016.98C658.249,1016.42 658.742,1015.28 658.621,1013.63C658.485,1011.79 656.99,1007.56 656.935,1006.53C656.835,1005.54 656.811,999.516 656.097,997.231C655.487,995.276 654.244,994.346 653.356,994.027C653.063,993.922 649.98,993.333 648.421,996.229L648.323,996.417ZM645.906,1001.34C645.863,1001.35 645.839,1001.48 645.818,1001.51L645.906,1001.34Z" />
                    <path d="M619.178,982.881L619.176,982.874C619.154,982.799 618.988,982.892 618.85,982.941C617.648,983.369 615.194,984.788 613.58,986.634C612.119,988.486 611.198,990.816 611.038,993.24C610.884,995.584 611.356,997.996 612.571,1000.06C615.185,1004.55 618.294,1007.25 621.817,1008.8C626.888,1011.03 632.916,1010.84 639.766,1009.66C641.187,1009.43 642.157,1008.09 641.93,1006.67C641.702,1005.25 640.364,1004.28 638.943,1004.51C634.235,1005.21 629.98,1005.56 626.302,1004.52C622.907,1003.56 620.15,1001.28 617.972,997.089C617.456,996.082 617.354,994.925 617.481,993.823C617.607,992.728 618.044,991.682 618.739,990.869C619.603,989.746 621.087,989.028 621.7,988.62C622.193,988.293 622.501,988.082 622.586,987.984C623.766,986.624 623.955,985.599 623.774,985.09C623.496,984.313 623.397,983.395 622.48,983.003C622.166,982.869 621.543,982.133 620.41,982.481C619.961,982.525 619.543,982.665 619.178,982.881ZM617.711,986.104C617.732,986.445 617.887,986.943 618.307,987.406C618.013,987.035 617.804,986.593 617.711,986.104Z" />
                    <path d="M639.173,1004.64C639.212,1004.58 639.262,1004.53 639.321,1004.53L634.749,1005.14C632.272,1005.85 629.455,1006.17 626.94,1007.09C624.784,1007.88 622.862,1009.1 621.315,1010.92C617.265,1015.72 616.299,1023.06 618.623,1027.99C620.438,1031.85 624.105,1034.52 630.13,1034.14C632.251,1033.93 633.805,1032.04 633.596,1029.92C633.387,1027.8 631.495,1026.25 629.373,1026.45C628.018,1026.65 626.901,1026.66 626.08,1026.13C625.169,1025.55 624.659,1024.56 624.413,1023.46C623.815,1020.79 624.572,1017.48 626.444,1015.13C627.214,1014.16 628.233,1013.56 629.328,1013.09C631.661,1012.09 634.287,1011.56 636.578,1010.72L641.099,1009.5C641.216,1009.42 641.984,1008.98 642.205,1008.75C643.367,1007.54 643.202,1006.37 642.997,1005.85C642.89,1005.57 642.252,1003.78 639.919,1004.33C639.647,1004.4 639.396,1004.5 639.173,1004.64ZM640.883,1009.26C640.94,1009.25 641.005,1009.24 641.077,1009.22L640.883,1009.26Z" />
                    <path d="M665.608,956.237C666.878,955.845 668.239,956.431 669.721,957.109C671.959,958.133 674.281,959.878 676.358,961.954C679.881,965.477 682.884,969.838 682.76,972.956C682.686,974.881 681.541,976.175 680.152,977.251C677.768,979.1 674.525,980.156 672.035,981.583C671.162,982.083 670.405,982.645 669.714,983.199C668.121,984.201 667.642,986.308 668.644,987.901C669.647,989.494 671.754,989.974 673.347,988.971C674.059,988.618 674.887,988.382 675.725,988.01C679.472,986.348 683.785,984.126 686.527,981.061C688.43,978.932 689.679,976.371 689.725,973.139C689.79,967.958 684.7,959.832 678.242,954.984C675.694,953.071 673.004,951.588 670.461,951.022C667.984,950.469 665.668,950.587 663.733,951.577C662.447,952.094 661.822,953.559 662.34,954.845C662.857,956.131 664.322,956.755 665.608,956.237Z" />
                </g>
            </g>
            <g>
                <path d="M556.912,429.112L569.557,418.9L616.842,375.446C628.55,364.685 637.655,357.997 645.346,348.864C650.404,342.857 654.866,335.818 659.033,325.984C663.782,314.744 664.461,301.909 662.468,289.681C660.383,276.887 655.376,264.776 649.238,255.924L637.703,236.712C627.73,221.719 614.5,208.964 598.506,201.146C583.333,193.73 565.674,190.729 545.901,194.477C537.682,196.035 530.063,199.24 522.805,203.319C512.476,209.124 502.882,216.715 493.248,223.599C485.303,229.288 477.711,235.421 470.314,241.78C454.905,255.026 440.298,269.203 424.998,282.273C423.47,283.579 421.598,284.556 420.398,286.164C420.229,286.392 420.215,286.599 420.103,286.859C418.736,287.977 418.535,289.994 419.653,291.361C420.771,292.727 422.788,292.929 424.154,291.811C424.436,291.751 424.643,291.773 424.903,291.649C426.747,290.77 428.071,289.067 429.639,287.75C445.056,274.798 459.663,260.594 475.111,247.373C482.358,241.172 489.78,235.176 497.556,229.624C506.971,222.887 516.329,215.435 526.424,209.754C532.98,206.064 539.849,203.128 547.275,201.715C565.317,198.283 581.437,200.981 595.288,207.736C610.135,214.976 622.379,226.843 631.648,240.744L643.287,260.058C648.899,268.123 653.453,279.176 655.378,290.844C657.175,301.741 656.69,313.193 652.476,323.222C648.674,332.297 644.606,338.805 639.972,344.361C632.5,353.322 623.611,359.876 612.229,370.455L565.184,414.264C562.53,416.871 559.505,419.156 556.759,421.717C555.505,422.887 554.339,424.125 553.219,425.407C552.196,426.427 552.194,428.084 553.213,429.106C554.232,430.128 555.889,430.131 556.912,429.112Z" />
                <path d="M467.129,285.269C467.204,285.226 467.257,285.186 467.257,285.186C467.257,285.186 467.495,284.798 467.148,284.688C466.171,284.378 463.668,285.017 463.096,285.015L453.494,285.47L423.231,287.378C421.939,286.876 420.483,287.517 419.98,288.809C419.478,290.101 420.12,291.558 421.412,292.06C422.254,292.643 423.278,293.119 424.592,293.525C426.517,294.12 428.965,294.283 431.624,294.396C438.983,294.708 448.191,293.715 453.356,293.927L462.952,293.803C463.669,293.824 466.915,294.173 468.037,293.55C468.664,293.201 468.709,293.148 468.836,292.939C469.185,292.359 469.652,292.854 469.734,292.599C469.893,292.099 470.45,292.481 470.479,292.139C470.509,291.794 470.971,291.991 470.95,291.708C470.895,291.006 471.862,291.167 471.647,290.659C471.492,290.294 472.1,290.231 471.894,289.929C471.377,289.172 472.668,288.575 471.887,288.139C471.698,288.033 471.964,287.798 471.759,287.713C471.462,287.589 471.81,287.177 471.474,287.101C471.181,287.035 471.442,286.594 471.11,286.575C470.12,285.365 468.551,284.904 467.129,285.269ZM464.427,290.371L464.474,290.506L464.633,290.85C464.446,290.734 464.299,290.622 464.425,290.379L464.427,290.371ZM464.278,289.854L464.276,289.859C464.2,289.966 464.268,290.035 464.34,290.108L464.278,289.854ZM464.231,288.524L464.223,288.532C463.946,288.727 464.065,288.928 464.197,289.15C464.191,288.94 464.201,288.731 464.231,288.524ZM464.318,288.076L464.31,288.083C464.205,288.139 464.235,288.224 464.262,288.31L464.266,288.287L464.318,288.076ZM464.462,287.623L464.457,287.625C464.337,287.672 464.36,287.766 464.378,287.861L464.462,287.623ZM464.832,286.902L464.641,287.225L464.618,287.275C464.614,287.107 464.603,286.94 464.83,286.903L464.832,286.902ZM465.707,285.963L465.621,286.026C465.448,286.168 465.29,286.322 465.15,286.489C465.22,286.203 465.26,285.889 465.696,285.962L465.707,285.963ZM466.456,285.508L466.28,285.59L465.957,285.781C466.056,285.605 466.141,285.383 466.437,285.505L466.456,285.508ZM466.756,285.384L466.73,285.378C466.63,285.326 466.59,285.416 466.539,285.47L466.63,285.428L466.756,285.384Z" />
                <path d="M556.292,426.067C556.374,425.67 556.616,425.448 556.644,425.014C556.72,423.82 556.491,422.496 556.478,421.031C556.445,417.404 556.769,413.075 557.313,408.529C558.497,398.636 560.59,387.794 561.862,381.082C562.256,378.956 560.849,376.911 558.724,376.518C556.598,376.124 554.553,377.531 554.159,379.656C552.739,387.637 549.919,401.285 549.45,412.558C549.231,417.812 549.419,422.599 550.47,426.063C550.553,426.335 550.584,426.625 550.745,426.844C550.996,427.183 551.153,427.265 551.478,427.503C551.874,428.831 553.275,429.588 554.603,429.192C555.932,428.796 556.688,427.395 556.292,426.067Z" />
                <path d="M568.358,381.298C566.888,380.905 565.519,380.277 564.204,379.551C561.505,378.061 559.027,376.162 556.497,374.646C552.691,372.366 549.048,369.878 545.492,367.286C540.066,363.331 534.85,359.121 529.653,354.926C522.302,349.014 515.501,342.343 509.12,335.25C499.481,324.536 490.803,312.856 482.683,301.32C479.325,296.551 475.374,291.444 472.318,285.975C470.388,282.521 468.817,278.923 468.05,275.164C467.733,273.619 466.223,272.622 464.678,272.938C463.133,273.254 462.136,274.765 462.452,276.31C463.341,280.634 465.121,284.786 467.347,288.758C470.509,294.397 474.576,299.672 478.049,304.589C486.315,316.291 495.149,328.138 504.963,338.998C511.561,346.299 518.602,353.153 526.2,359.23C531.495,363.45 536.798,367.7 542.336,371.658C546.047,374.311 549.866,376.83 553.841,379.144C556.438,380.656 558.993,382.55 561.761,384.036C563.784,385.122 565.912,386.004 568.223,386.444C570.609,386.899 571.772,385.58 572.063,384.777C572.251,384.258 572.42,383.413 571.815,382.295C571.161,381.072 569.638,380.61 568.415,381.264L568.358,381.298ZM568.929,381.438L569.193,381.499C569.277,381.516 569.408,381.602 569.415,381.538C569.445,381.238 569.207,381.288 568.929,381.438Z" />
                <path d="M561.049,275.939C560.732,275.05 557.569,276.723 556.813,277.577C556.319,278.136 556.048,278.829 555.94,279.637C555.839,280.381 556.059,281.6 557.077,282.909C558.211,284.368 561.799,287.056 562.417,287.885C563.047,288.651 566.408,293.652 568.269,295.159C569.861,296.447 571.411,296.532 572.326,296.306C572.629,296.231 575.52,295.011 575.213,291.736L575.19,291.527C576.216,288.947 578.104,284.668 579.182,281.743C580.071,279.333 580.217,277.415 580.111,276.871C579.782,275.236 578.548,273.941 576.318,273.685C574.793,273.509 572,274.311 571.352,274.41C569.037,274.766 566.396,274.733 563.958,275.166C562.953,275.345 561.976,275.591 561.049,275.939ZM574.473,286.091C574.501,286.054 574.452,285.938 574.449,285.895L574.473,286.091Z" />
                <path d="M606.951,286.633L606.956,286.638C607.016,286.689 607.103,286.519 607.19,286.402C607.953,285.379 609.209,282.837 609.529,280.406C609.717,278.055 609.193,275.605 607.982,273.5C606.811,271.463 605.081,269.717 602.925,268.673C598.261,266.388 594.175,265.86 590.384,266.524C584.926,267.48 580.018,270.983 574.971,275.763C573.914,276.74 573.849,278.391 574.826,279.448C575.803,280.505 577.455,280.57 578.512,279.593C582.04,276.399 585.39,273.751 589.025,272.574C592.38,271.488 595.94,271.859 600.077,274.14C601.065,274.692 601.791,275.598 602.296,276.587C602.798,277.567 603.014,278.68 602.887,279.742C602.79,281.156 601.954,282.575 601.669,283.255C601.441,283.8 601.302,284.147 601.285,284.275C601.057,286.062 601.468,287.02 601.901,287.342C602.563,287.836 603.154,288.544 604.135,288.362C604.47,288.3 605.397,288.567 606.147,287.65C606.497,287.364 606.766,287.016 606.951,286.633ZM605.167,282.385C605.617,282.53 606.036,282.782 606.385,283.137C606.178,282.865 605.773,282.536 605.167,282.385Z" />
                <path d="M578.244,279.606C578.25,279.686 578.231,279.747 578.185,279.786C578.185,279.786 581.652,276.743 581.652,276.743C583.32,274.778 585.486,272.949 587.068,270.787C588.423,268.934 589.348,266.854 589.626,264.481C590.339,258.246 587.073,251.601 582.404,248.783C578.756,246.581 574.223,246.391 569.416,250.043C567.766,251.393 567.523,253.828 568.873,255.479C570.223,257.129 572.658,257.372 574.309,256.022C575.325,255.104 576.254,254.483 577.227,254.463C578.307,254.442 579.282,254.985 580.097,255.764C582.077,257.657 583.28,260.829 583.023,263.821C582.921,265.057 582.405,266.119 581.754,267.118C580.369,269.246 578.475,271.139 577.038,273.114L573.947,276.629C573.894,276.763 573.498,277.553 573.443,277.867C573.149,279.523 573.934,280.404 574.396,280.727C574.637,280.895 576.161,282.033 577.796,280.28C577.987,280.075 578.137,279.848 578.244,279.606ZM574.264,276.716C574.22,276.754 574.173,276.799 574.123,276.853L574.264,276.716Z" />
                <path d="M583.08,334.548C582.241,335.579 580.783,335.846 579.174,336.103C576.744,336.492 573.843,336.327 570.965,335.75C566.079,334.772 561.162,332.807 559.537,330.144C558.531,328.5 558.767,326.789 559.326,325.123C560.285,322.262 562.398,319.586 563.68,317.018C564.129,316.117 564.447,315.23 564.715,314.386C565.485,312.669 564.716,310.649 562.999,309.879C561.281,309.11 559.262,309.879 558.492,311.596C558.095,312.285 557.537,312.941 557.045,313.715C554.849,317.175 552.491,321.415 551.909,325.486C551.504,328.313 551.885,331.138 553.639,333.853C556.457,338.201 565.198,342.142 573.261,342.596C576.442,342.775 579.502,342.518 581.933,341.58C584.301,340.666 586.162,339.284 587.225,337.387C588.008,336.244 587.716,334.679 586.572,333.896C585.429,333.112 583.864,333.405 583.08,334.548Z" />
                <path d="M517.011,284.287L517.016,284.286C517.129,284.263 516.872,284.129 516.817,284.059L517.011,284.287C514.249,284.835 518.315,275.858 518.913,274.108L520.945,268.397C522.402,267.205 522.617,265.054 521.425,263.598C520.233,262.141 518.083,261.926 516.626,263.118C515.699,263.746 514.857,264.782 514.139,266.034C513.092,267.861 512.474,270.317 511.97,271.82C511.414,273.569 510.105,278.34 509.905,282.071C509.753,284.895 510.36,287.251 511.404,288.488C514.532,292.166 520.266,294.768 526.178,295.249C532.145,295.735 538.143,294.168 541.606,290.251C542.685,289.094 542.621,287.278 541.463,286.2C540.305,285.121 538.49,285.185 537.411,286.343C534.961,288.839 530.821,289.325 526.847,288.821C522.947,288.326 519.097,286.751 517.011,284.287Z" />
            </g>
            <g>
                <path d="M466.993,616.106L468.38,632.3L477.933,695.805C480.3,711.53 480.747,722.819 484.012,734.303C486.16,741.857 489.497,749.494 495.316,758.45C501.974,768.676 512.23,776.421 523.48,781.612C535.251,787.044 548.089,789.67 558.86,789.538L581.238,790.728C599.244,790.853 617.218,787.026 632.648,778.145C647.284,769.721 659.654,756.764 667.612,738.28C670.92,730.596 672.527,722.489 673.208,714.19C674.178,702.383 673.254,690.183 672.94,678.346C672.672,668.578 671.837,658.855 670.707,649.166C668.352,628.983 664.776,608.944 662.506,588.95C662.279,586.953 662.516,584.855 661.855,582.96C661.761,582.693 661.597,582.565 661.444,582.326C661.282,580.568 659.724,579.272 657.966,579.434C656.208,579.596 654.912,581.155 655.074,582.913C654.965,583.179 654.831,583.34 654.788,583.624C654.485,585.645 655.155,587.695 655.37,589.731C657.476,609.756 661.075,629.81 663.387,650.012C664.471,659.487 665.287,668.994 665.537,678.545C665.852,690.118 666.79,702.044 665.85,713.589C665.24,721.088 663.829,728.424 660.845,735.369C653.593,752.242 642.337,764.091 628.987,771.791C614.678,780.044 597.991,783.551 581.284,783.454L558.765,782.292C548.939,782.43 537.231,780.019 526.484,775.085C516.447,770.476 507.228,763.666 501.274,754.562C495.881,746.333 492.763,739.319 490.751,732.37C487.507,721.163 487.049,710.129 484.65,694.775L474.669,631.271C473.993,627.612 473.793,623.826 473.207,620.118C472.939,618.423 472.566,616.764 472.129,615.118C471.857,613.701 470.485,612.771 469.067,613.044C467.65,613.316 466.72,614.688 466.993,616.106Z" />
                <path d="M636.447,622.19C636.44,622.277 636.444,622.342 636.444,622.342C636.444,622.342 636.633,622.757 636.918,622.531C637.721,621.894 638.592,619.463 638.914,618.99L643.91,610.777L659.264,584.629C660.403,583.839 660.687,582.273 659.897,581.134C659.107,579.994 657.54,579.711 656.401,580.501C655.447,580.873 654.479,581.455 653.408,582.317C651.838,583.579 650.332,585.517 648.751,587.657C644.374,593.582 640.044,601.768 636.978,605.93L631.712,613.953C631.293,614.535 629.187,617.03 629.076,618.308C629.013,619.024 629.032,619.091 629.135,619.313C629.42,619.927 628.748,620.036 628.915,620.247C629.239,620.658 628.611,620.907 628.878,621.122C629.147,621.34 628.726,621.613 628.972,621.753C629.585,622.101 628.91,622.812 629.451,622.917C629.841,622.993 629.552,623.533 629.919,623.531C630.834,623.527 630.607,624.93 631.406,624.527C631.599,624.429 631.645,624.781 631.831,624.659C632.099,624.483 632.246,625.002 632.497,624.765C632.715,624.56 632.935,625.022 633.136,624.759C634.694,624.615 635.953,623.573 636.447,622.19ZM636.594,621.687L636.56,621.817L636.58,621.799C636.679,621.744 636.627,621.661 636.61,621.588L636.594,621.687ZM636.656,621.306L636.678,620.932C636.769,621.113 636.905,621.308 636.638,621.484L636.625,621.499L636.656,621.306ZM636.543,619.867C636.741,620.085 636.979,620.294 636.674,620.615L636.667,620.623L636.663,620.517C636.642,620.293 636.603,620.076 636.543,619.867ZM636.218,619.034L636.19,618.986C636.331,619.077 636.476,619.161 636.379,619.37L636.379,619.372L636.218,619.034ZM635.838,618.459L635.988,618.662L635.989,618.657C636.017,618.532 635.926,618.498 635.838,618.459ZM635.548,618.129L635.693,618.29L635.692,618.279C635.704,618.161 635.617,618.138 635.53,618.112L635.548,618.129ZM634.871,617.588C635.048,617.7 635.216,617.826 635.371,617.966L635.368,617.956C635.362,617.617 635.129,617.603 634.871,617.588ZM633.997,617.17L634.242,617.262L634.24,617.257C634.193,617.134 634.097,617.152 633.997,617.17ZM633.73,617.096L633.592,617.059L633.217,616.998C633.419,616.908 633.594,616.849 633.725,617.09L633.73,617.096Z" />
                <path d="M469.863,617.296C470.146,617.586 470.194,617.911 470.539,618.177C471.485,618.908 472.711,619.459 473.933,620.268C476.957,622.271 480.363,624.962 483.827,627.957C491.363,634.473 499.177,642.276 504.028,647.086C505.57,648.602 508.052,648.58 509.567,647.039C511.083,645.497 511.062,643.015 509.52,641.5C503.7,635.856 493.967,625.882 484.888,619.185C480.656,616.063 476.583,613.541 473.124,612.473C472.852,612.389 472.595,612.253 472.323,612.265C471.901,612.282 471.746,612.367 471.367,612.503C470.044,612.088 468.633,612.825 468.218,614.148C467.803,615.47 468.54,616.881 469.863,617.296Z" />
                <path d="M500.214,652.348C501.362,651.35 502.649,650.567 503.987,649.883C506.732,648.481 509.692,647.489 512.364,646.241C516.383,644.362 520.484,642.735 524.622,641.239C530.937,638.955 537.345,636.988 543.729,635.028C552.742,632.245 562.077,630.342 571.526,629.022C585.8,627.029 600.335,626.373 614.44,626.099C620.272,625.984 626.715,625.568 632.958,626.095C636.9,626.428 640.762,627.14 644.306,628.608C645.763,629.21 647.435,628.516 648.038,627.059C648.64,625.602 647.946,623.93 646.489,623.327C642.408,621.644 637.971,620.796 633.433,620.419C626.991,619.883 620.343,620.302 614.325,620.429C600,620.732 585.238,621.423 570.746,623.479C561.003,624.862 551.382,626.862 542.094,629.758C535.634,631.785 529.144,633.802 522.765,636.176C518.489,637.768 514.265,639.523 510.123,641.522C507.416,642.829 504.416,643.887 501.636,645.349C499.604,646.418 497.682,647.688 496.025,649.357C494.312,651.08 494.755,652.782 495.258,653.472C495.582,653.918 496.188,654.532 497.454,654.656C498.833,654.798 500.068,653.794 500.21,652.415L500.214,652.348ZM499.778,652.743L499.58,652.928C499.519,652.989 499.374,653.049 499.423,653.09C499.655,653.282 499.747,653.058 499.778,652.743Z" />
                <path d="M570.791,708.246C572.355,710.54 574.844,714.499 576.665,717.03C578.165,719.114 579.673,720.309 580.183,720.525C581.722,721.168 583.486,720.869 584.946,719.165C585.945,717.999 586.843,715.236 587.124,714.643C588.124,712.526 589.63,710.355 590.635,708.092C591.049,707.159 591.392,706.212 591.622,705.249C592.536,705.484 592.92,701.926 592.635,700.821C592.448,700.099 592.025,699.487 591.416,698.945C590.856,698.445 589.723,697.945 588.068,698.056C586.224,698.18 581.99,699.649 580.957,699.698C579.969,699.792 573.943,699.778 571.653,700.477C569.695,701.076 568.757,702.313 568.433,703.198C568.325,703.491 567.718,706.57 570.604,708.148L570.791,708.246ZM575.696,710.694C575.712,710.737 575.835,710.762 575.872,710.783L575.696,710.694Z" />
                <path d="M557.073,737.307L557.066,737.308C556.991,737.33 557.083,737.496 557.131,737.634C557.551,738.839 558.956,741.302 560.791,742.927C562.634,744.399 564.958,745.336 567.381,745.51C569.724,745.68 572.139,745.223 574.211,744.02C578.714,741.434 581.438,738.342 583.01,734.829C585.272,729.772 585.115,723.743 583.977,716.886C583.759,715.463 582.427,714.485 581.004,714.704C579.582,714.922 578.604,716.254 578.822,717.677C579.495,722.388 579.815,726.646 578.756,730.318C577.778,733.706 575.479,736.449 571.273,738.601C570.263,739.111 569.106,739.205 568.004,739.071C566.91,738.938 565.867,738.495 565.058,737.795C563.941,736.924 563.232,735.436 562.828,734.82C562.504,734.325 562.295,734.016 562.198,733.93C560.844,732.742 559.821,732.546 559.311,732.724C558.532,732.997 557.614,733.091 557.216,734.005C557.08,734.318 556.34,734.937 556.68,736.071C556.722,736.521 556.859,736.94 557.073,737.307ZM561.592,738.205C561.22,738.497 560.776,738.704 560.287,738.794C560.628,738.775 561.127,738.623 561.592,738.205Z" />
                <path d="M578.961,717.448C578.892,717.408 578.851,717.358 578.845,717.298C578.845,717.298 579.426,721.874 579.426,721.874C580.122,724.356 580.425,727.175 581.332,729.695C582.11,731.856 583.316,733.786 585.127,735.344C589.896,739.425 597.231,740.436 602.179,738.143C606.044,736.352 608.738,732.702 608.402,726.675C608.207,724.552 606.324,722.987 604.201,723.182C602.078,723.378 600.513,725.26 600.709,727.383C600.901,728.74 600.896,729.857 600.368,730.674C599.781,731.582 598.786,732.086 597.684,732.325C595.007,732.906 591.704,732.129 589.369,730.242C588.402,729.465 587.81,728.443 587.346,727.345C586.358,725.006 585.849,722.377 585.016,720.081L583.833,715.552C583.751,715.434 583.318,714.663 583.089,714.441C581.881,713.272 580.712,713.429 580.185,713.631C579.912,713.737 578.115,714.363 578.653,716.699C578.716,716.972 578.821,717.223 578.961,717.448ZM583.583,715.766C583.577,715.709 583.565,715.645 583.549,715.572L583.583,715.766Z" />
                <path d="M530.72,690.711C530.336,689.438 530.93,688.081 531.617,686.603C532.655,684.372 534.415,682.06 536.504,679.997C540.049,676.495 544.429,673.52 547.545,673.663C549.47,673.749 550.757,674.902 551.824,676.298C553.658,678.694 554.694,681.943 556.105,684.442C556.6,685.318 557.158,686.079 557.707,686.773C558.699,688.372 560.803,688.864 562.403,687.872C564.002,686.879 564.494,684.775 563.502,683.176C563.153,682.462 562.922,681.632 562.555,680.792C560.917,677.035 558.722,672.708 555.674,669.947C553.557,668.03 551.003,666.766 547.772,666.7C542.591,666.602 534.434,671.641 529.546,678.069C527.617,680.605 526.118,683.285 525.535,685.825C524.967,688.299 525.071,690.615 526.048,692.557C526.557,693.846 528.018,694.479 529.307,693.97C530.596,693.46 531.23,692 530.72,690.711Z" />
                <path d="M609.347,664.08C610.439,661.484 615.603,669.878 616.718,671.353L620.314,676.233C620.487,678.107 622.149,679.489 624.024,679.316C625.898,679.144 627.28,677.482 627.107,675.607C627.105,674.487 626.718,673.21 626.082,671.914C625.154,670.024 623.464,668.137 622.5,666.879C621.362,665.439 618.14,661.685 615.16,659.431C612.905,657.725 610.612,656.91 609.003,657.082C604.204,657.616 598.839,660.913 595.132,665.543C591.391,670.216 589.333,676.065 590.641,681.126C590.997,682.668 592.537,683.631 594.079,683.275C595.62,682.919 596.583,681.379 596.227,679.837C595.53,676.409 597.444,672.706 600.085,669.695C602.677,666.74 606.138,664.43 609.347,664.08ZM609.347,664.08L609.345,664.085C609.301,664.192 609.556,664.054 609.644,664.047L609.347,664.08Z" />
            </g>
            <g>
                <g>
                    <path d="M152.757,-46.094L141.646,-34.231L100.826,15.345C90.719,27.623 82.626,35.506 76.273,45.615C72.094,52.263 68.649,59.852 65.882,70.168C62.733,81.957 63.836,94.762 67.501,106.597C71.336,118.98 77.971,130.282 85.273,138.2L99.355,155.632C111.306,169.101 126.173,179.903 143.095,185.433C159.148,190.679 177.052,191.209 196.117,184.762C204.041,182.082 211.143,177.854 217.768,172.81C227.194,165.633 235.646,156.787 244.235,148.637C251.317,141.904 257.988,134.78 264.434,127.459C277.863,112.209 290.368,96.148 303.713,81.087C305.046,79.583 306.765,78.356 307.731,76.597C307.867,76.348 307.852,76.141 307.927,75.868C309.126,74.572 309.047,72.546 307.75,71.348C306.454,70.149 304.429,70.228 303.23,71.524C302.96,71.622 302.751,71.629 302.511,71.788C300.806,72.914 299.73,74.784 298.36,76.304C284.882,91.264 272.381,107.353 258.909,122.583C252.59,129.727 246.068,136.692 239.136,143.266C230.743,151.24 222.505,159.915 213.294,166.938C207.311,171.5 200.914,175.358 193.755,177.784C176.361,183.679 160.023,183.236 145.37,178.462C129.664,173.345 115.897,163.286 104.794,150.801L90.596,133.283C83.922,126.071 77.883,115.755 74.363,104.465C71.076,93.921 69.972,82.512 72.758,71.997C75.268,62.483 78.397,55.474 82.218,49.331C88.379,39.423 96.275,31.703 106.085,19.65L146.618,-30.244C148.886,-33.194 151.566,-35.875 153.931,-38.791C155.011,-40.123 155.995,-41.511 156.927,-42.936C157.799,-44.087 157.572,-45.728 156.421,-46.6C155.27,-47.471 153.629,-47.244 152.757,-46.094Z" />
                    <path d="M261.573,83.948C261.504,84 261.458,84.047 261.458,84.047C261.458,84.047 261.276,84.465 261.635,84.526C262.645,84.697 265.035,83.718 265.603,83.641L275.049,81.862L304.757,75.787C306.106,76.106 307.46,75.269 307.779,73.92C308.097,72.57 307.261,71.216 305.912,70.898C304.997,70.438 303.917,70.107 302.559,69.887C300.571,69.565 298.123,69.741 295.474,69.997C288.143,70.706 279.161,72.963 274.017,73.467L264.53,74.918C263.817,74.996 260.553,75.099 259.529,75.872C258.955,76.304 258.918,76.363 258.822,76.588C258.556,77.21 258.025,76.784 257.98,77.049C257.891,77.565 257.286,77.264 257.305,77.607C257.323,77.953 256.838,77.822 256.899,78.099C257.05,78.786 256.07,78.761 256.353,79.234C256.557,79.574 255.963,79.72 256.21,79.992C256.826,80.669 255.63,81.439 256.464,81.763C256.666,81.842 256.435,82.111 256.65,82.168C256.961,82.249 256.673,82.705 257.017,82.734C257.316,82.759 257.119,83.231 257.45,83.205C258.598,84.266 260.215,84.506 261.573,83.948ZM262.046,83.721L261.926,83.782L261.953,83.784C262.06,83.822 262.086,83.728 262.13,83.667L262.046,83.721ZM262.37,83.512L262.663,83.278C262.589,83.466 262.536,83.698 262.226,83.618L262.206,83.618L262.37,83.512ZM263.364,82.466C263.335,82.758 263.339,83.075 262.896,83.062L262.885,83.064L262.961,82.989C263.114,82.824 263.249,82.65 263.364,82.466ZM263.767,81.667L263.783,81.614C263.81,81.779 263.844,81.943 263.624,82.012L263.622,82.012L263.767,81.667ZM263.939,80.999L263.889,81.247L263.894,81.244C264.006,81.182 263.97,81.091 263.939,80.999ZM263.991,80.563L263.969,80.779L263.976,80.771C264.072,80.7 264.03,80.621 263.992,80.539L263.991,80.563ZM263.94,79.698C263.976,79.905 263.994,80.114 263.993,80.323L263.999,80.314C264.248,80.083 264.102,79.9 263.94,79.698ZM263.666,78.769L263.762,79.012L263.764,79.007C263.825,78.891 263.747,78.831 263.666,78.769ZM263.478,78.393L263.273,78.075C263.474,78.164 263.636,78.254 263.544,78.513L263.543,78.52L263.478,78.393Z" />
                    <path d="M153.792,-43.164C153.766,-42.76 153.557,-42.507 153.589,-42.072C153.679,-40.88 154.089,-39.6 154.305,-38.151C154.838,-34.563 155.117,-30.231 155.207,-25.653C155.403,-15.692 154.829,-4.664 154.498,2.159C154.402,4.319 156.078,6.15 158.238,6.245C160.397,6.341 162.228,4.665 162.324,2.505C162.626,-5.595 163.532,-19.502 162.437,-30.731C161.927,-35.965 161.079,-40.68 159.558,-43.966C159.439,-44.224 159.368,-44.506 159.178,-44.701C158.883,-45.002 158.716,-45.061 158.361,-45.252C157.785,-46.513 156.293,-47.069 155.033,-46.493C153.772,-45.916 153.216,-44.425 153.792,-43.164Z" />
                    <path d="M148.035,2.843C149.545,3.029 150.988,3.462 152.39,3.999C155.269,5.102 157.986,6.64 160.702,7.791C164.786,9.522 168.738,11.482 172.619,13.558C178.54,16.725 184.288,20.173 190.015,23.608C198.113,28.447 205.771,34.113 213.072,40.255C224.101,49.533 234.311,59.9 243.948,70.202C247.934,74.461 252.553,78.972 256.336,83.966C258.726,87.119 260.78,90.466 262.059,94.083C262.586,95.569 264.22,96.348 265.706,95.821C267.192,95.294 267.971,93.66 267.444,92.174C265.966,88.013 263.629,84.148 260.875,80.523C256.963,75.375 252.205,70.713 248.086,66.324C238.28,55.878 227.892,45.366 216.671,35.968C209.126,29.65 201.205,23.835 192.839,18.868C187.012,15.421 181.172,11.945 175.14,8.791C171.097,6.677 166.967,4.71 162.71,2.968C159.929,1.83 157.136,0.308 154.189,-0.781C152.035,-1.577 149.806,-2.156 147.457,-2.272C145.03,-2.392 144.061,-0.925 143.884,-0.089C143.769,0.45 143.719,1.311 144.473,2.335C145.29,3.455 146.862,3.702 147.982,2.885L148.035,2.843ZM147.45,2.784L147.18,2.76C147.094,2.755 146.952,2.688 146.955,2.752C146.966,3.053 147.195,2.971 147.45,2.784Z" />
                    <path d="M153.685,92.697C153.026,95.394 151.748,99.892 151.084,102.939C150.538,105.448 150.659,107.368 150.839,107.892C151.391,109.467 152.792,110.578 155.036,110.523C156.57,110.486 159.226,109.306 159.854,109.118C162.097,108.446 164.718,108.113 167.072,107.346C168.043,107.03 168.976,106.651 169.846,106.179C170.283,107.016 173.185,104.921 173.815,103.97C174.227,103.348 174.4,102.624 174.395,101.809C174.392,101.059 174.006,99.882 172.816,98.726C171.491,97.438 167.566,95.273 166.84,94.537C166.109,93.865 162.089,89.377 160.037,88.143C158.283,87.087 156.736,87.217 155.861,87.568C155.571,87.684 152.876,89.292 153.634,92.492L153.685,92.697ZM155.147,97.981C155.125,98.022 155.189,98.13 155.198,98.172L155.147,97.981Z" />
                    <path d="M122.906,101.936L122.9,101.932C122.834,101.891 122.772,102.071 122.702,102.199C122.088,103.317 121.196,106.008 121.215,108.46C121.353,110.815 122.212,113.168 123.702,115.086C125.144,116.942 127.099,118.431 129.378,119.167C134.313,120.785 138.433,120.743 142.096,119.561C147.369,117.86 151.745,113.711 156.082,108.279C156.994,107.165 156.83,105.521 155.716,104.609C154.602,103.697 152.958,103.861 152.046,104.975C148.993,108.627 146.042,111.713 142.605,113.381C139.432,114.92 135.855,115.046 131.442,113.358C130.387,112.948 129.543,112.151 128.906,111.243C128.273,110.341 127.905,109.269 127.885,108.199C127.785,106.786 128.417,105.264 128.605,104.551C128.756,103.98 128.846,103.618 128.844,103.488C128.822,101.687 128.284,100.795 127.81,100.536C127.086,100.139 126.402,99.519 125.457,99.835C125.133,99.943 124.178,99.806 123.562,100.818C123.256,101.15 123.036,101.532 122.906,101.936ZM123.951,105.32C124.193,105.561 124.64,105.831 125.261,105.897C124.795,105.816 124.345,105.624 123.951,105.32Z" />
                    <path d="M152.309,104.926C152.293,104.847 152.303,104.784 152.343,104.739L149.33,108.232C147.95,110.409 146.058,112.52 144.79,114.88C143.704,116.903 143.077,119.091 143.129,121.479C143.285,127.753 147.439,133.883 152.453,136.028C156.371,137.703 160.886,137.265 165.141,132.984C166.589,131.418 166.493,128.972 164.928,127.525C163.363,126.077 160.917,126.173 159.469,127.738C158.589,128.788 157.756,129.532 156.795,129.686C155.728,129.857 154.687,129.454 153.772,128.795C151.55,127.194 149.919,124.218 149.759,121.22C149.69,119.982 150.054,118.858 150.56,117.779C151.638,115.48 153.252,113.343 154.402,111.188L156.977,107.279C157.011,107.14 157.294,106.302 157.305,105.983C157.367,104.303 156.468,103.539 155.965,103.283C155.704,103.15 154.037,102.234 152.66,104.196C152.499,104.425 152.383,104.671 152.309,104.926ZM156.651,107.237C156.689,107.194 156.73,107.142 156.772,107.082L156.651,107.237Z" />
                    <path d="M139.92,51.18C140.609,50.043 142.015,49.577 143.574,49.1C145.927,48.379 148.822,48.141 151.753,48.314C156.727,48.607 161.868,49.873 163.847,52.286C165.07,53.774 165.073,55.502 164.75,57.229C164.195,60.195 162.473,63.138 161.559,65.859C161.238,66.813 161.046,67.736 160.897,68.608C160.372,70.416 161.414,72.309 163.221,72.834C165.028,73.359 166.922,72.318 167.447,70.511C167.745,69.774 168.207,69.047 168.586,68.212C170.284,64.482 172.032,59.956 172.046,55.843C172.055,52.988 171.287,50.243 169.175,47.797C165.782,43.88 156.581,41.186 148.532,41.852C145.357,42.114 142.361,42.792 140.084,44.058C137.865,45.29 136.213,46.916 135.423,48.942C134.805,50.183 135.311,51.692 136.552,52.31C137.793,52.927 139.302,52.421 139.92,51.18Z" />
                    <path d="M212.306,91.82L212.302,91.821C212.192,91.86 212.466,91.957 212.53,92.018L212.306,91.82C214.966,90.895 212.181,100.348 211.83,102.164L210.608,108.101C209.33,109.483 209.414,111.643 210.796,112.921C212.178,114.199 214.338,114.114 215.616,112.732C216.447,111.982 217.138,110.84 217.676,109.5C218.46,107.546 218.733,105.028 219.023,103.47C219.333,101.66 219.968,96.755 219.651,93.032C219.411,90.214 218.483,87.964 217.278,86.883C213.672,83.673 207.632,81.889 201.711,82.231C195.735,82.575 190.011,84.957 187.123,89.315C186.215,90.61 186.529,92.4 187.825,93.308C189.121,94.216 190.91,93.901 191.818,92.605C193.899,89.794 197.933,88.74 201.938,88.69C205.868,88.64 209.9,89.668 212.306,91.82Z" />
                </g>
                <g>
                    <path d="M152.757,953.907L141.646,965.769L100.826,1015.35C90.719,1027.62 82.626,1035.51 76.273,1045.62C72.094,1052.26 68.649,1059.85 65.882,1070.17C62.733,1081.96 63.836,1094.76 67.501,1106.6C71.336,1118.98 77.971,1130.28 85.273,1138.2L99.355,1155.63C111.306,1169.1 126.173,1179.9 143.095,1185.43C159.148,1190.68 177.052,1191.21 196.117,1184.76C204.041,1182.08 211.143,1177.86 217.768,1172.81C227.194,1165.63 235.646,1156.79 244.235,1148.64C251.317,1141.9 257.988,1134.78 264.434,1127.46C277.863,1112.21 290.368,1096.15 303.713,1081.09C305.046,1079.58 306.765,1078.36 307.731,1076.6C307.867,1076.35 307.852,1076.14 307.927,1075.87C309.126,1074.57 309.047,1072.55 307.75,1071.35C306.454,1070.15 304.429,1070.23 303.23,1071.53C302.96,1071.62 302.751,1071.63 302.511,1071.79C300.806,1072.91 299.73,1074.78 298.36,1076.31C284.882,1091.27 272.381,1107.35 258.909,1122.58C252.59,1129.73 246.068,1136.69 239.136,1143.27C230.743,1151.24 222.505,1159.92 213.294,1166.94C207.311,1171.5 200.914,1175.36 193.755,1177.79C176.361,1183.68 160.023,1183.24 145.37,1178.46C129.664,1173.35 115.897,1163.29 104.794,1150.8L90.596,1133.28C83.922,1126.07 77.883,1115.76 74.363,1104.46C71.076,1093.92 69.972,1082.51 72.758,1072C75.268,1062.48 78.397,1055.47 82.218,1049.33C88.379,1039.42 96.275,1031.7 106.085,1019.65L146.618,969.756C148.886,966.807 151.566,964.126 153.931,961.21C155.011,959.877 155.995,958.49 156.927,957.065C157.799,955.914 157.572,954.272 156.421,953.401C155.27,952.529 153.629,952.756 152.757,953.907Z" />
                    <path d="M153.792,956.836C153.766,957.241 153.557,957.494 153.589,957.928C153.679,959.121 154.089,960.4 154.305,961.85C154.838,965.437 155.117,969.77 155.207,974.347C155.403,984.308 154.829,995.336 154.498,1002.16C154.402,1004.32 156.078,1006.15 158.238,1006.25C160.397,1006.34 162.228,1004.67 162.324,1002.51C162.626,994.405 163.532,980.498 162.437,969.269C161.927,964.035 161.079,959.321 159.558,956.035C159.439,955.777 159.368,955.495 159.178,955.3C158.883,954.998 158.716,954.939 158.361,954.748C157.785,953.487 156.293,952.932 155.033,953.508C153.772,954.084 153.216,955.576 153.792,956.836Z" />
                    <path d="M148.035,1002.84C149.545,1003.03 150.988,1003.46 152.39,1004C155.269,1005.1 157.986,1006.64 160.702,1007.79C164.786,1009.52 168.738,1011.48 172.619,1013.56C178.54,1016.73 184.288,1020.17 190.015,1023.61C198.113,1028.45 205.771,1034.11 213.072,1040.26C224.101,1049.53 234.311,1059.9 243.948,1070.2C247.934,1074.46 252.553,1078.97 256.336,1083.97C258.726,1087.12 260.78,1090.47 262.059,1094.08C262.586,1095.57 264.22,1096.35 265.706,1095.82C267.192,1095.29 267.971,1093.66 267.444,1092.17C265.966,1088.01 263.629,1084.15 260.875,1080.52C256.963,1075.38 252.205,1070.71 248.086,1066.32C238.28,1055.88 227.892,1045.37 216.671,1035.97C209.126,1029.65 201.205,1023.84 192.839,1018.87C187.012,1015.42 181.172,1011.95 175.14,1008.79C171.097,1006.68 166.967,1004.71 162.71,1002.97C159.929,1001.83 157.136,1000.31 154.189,999.219C152.035,998.424 149.806,997.845 147.457,997.729C145.03,997.608 144.061,999.075 143.884,999.911C143.769,1000.45 143.719,1001.31 144.473,1002.34C145.29,1003.46 146.862,1003.7 147.982,1002.89L148.035,1002.84ZM147.45,1002.78L147.18,1002.76C147.094,1002.76 146.952,1002.69 146.955,1002.75C146.966,1003.05 147.195,1002.97 147.45,1002.78Z" />
                </g>
            </g>
            <g>
                <g>
                    <path d="M1070,308.849L1058.38,297.484L1009.69,255.601C997.638,245.23 989.933,236.969 979.963,230.398C973.407,226.076 965.895,222.468 955.641,219.479C943.923,216.076 931.096,216.901 919.185,220.309C906.722,223.875 895.28,230.264 887.205,237.393L869.473,251.095C855.748,262.751 844.627,277.381 838.732,294.18C833.139,310.115 832.222,328.004 838.255,347.204C840.763,355.184 844.837,362.376 849.736,369.108C856.707,378.687 865.368,387.328 873.331,396.092C879.909,403.318 886.887,410.141 894.067,416.745C909.023,430.5 924.81,443.35 939.578,457.018C941.053,458.383 942.243,460.128 943.98,461.131C944.226,461.273 944.433,461.263 944.705,461.344C945.975,462.57 948.002,462.535 949.228,461.265C950.454,459.995 950.419,457.968 949.149,456.742C949.057,456.469 949.055,456.26 948.901,456.017C947.812,454.288 945.966,453.172 944.476,451.769C929.811,437.971 913.997,425.124 899.061,411.326C892.056,404.855 885.234,398.183 878.811,391.11C871.02,382.547 862.526,374.123 855.704,364.762C851.273,358.681 847.554,352.203 845.283,344.993C839.766,327.476 840.562,311.151 845.652,296.605C851.108,281.014 861.463,267.467 874.185,256.637L892.006,242.821C899.361,236.304 909.805,230.49 921.169,227.215C931.781,224.157 943.211,223.301 953.664,226.313C963.12,229.029 970.06,232.309 976.119,236.261C985.892,242.635 993.439,250.697 1005.28,260.765L1054.28,302.368C1057.18,304.699 1059.81,307.437 1062.67,309.864C1063.98,310.973 1065.34,311.987 1066.75,312.95C1067.88,313.846 1069.53,313.654 1070.42,312.523C1071.32,311.391 1071.13,309.745 1070,308.849Z" />
                    <path d="M937.63,414.825C937.579,414.756 937.533,414.708 937.533,414.708C937.533,414.708 937.12,414.518 937.051,414.875C936.858,415.881 937.785,418.292 937.849,418.861L939.423,428.344L944.854,458.176C944.507,459.518 945.314,460.89 946.656,461.238C947.998,461.585 949.37,460.778 949.717,459.436C950.197,458.531 950.551,457.459 950.8,456.106C951.166,454.125 951.042,451.674 950.844,449.021C950.294,441.675 948.232,432.647 947.839,427.493L946.594,417.977C946.531,417.263 946.498,413.998 945.748,412.956C945.329,412.374 945.271,412.335 945.048,412.234C944.432,411.955 944.869,411.434 944.605,411.382C944.091,411.282 944.405,410.684 944.062,410.695C943.716,410.706 943.857,410.224 943.579,410.279C942.888,410.415 942.935,409.436 942.456,409.709C942.111,409.906 941.978,409.309 941.701,409.549C941.01,410.15 940.266,408.939 939.925,409.765C939.842,409.965 939.577,409.728 939.516,409.942C939.428,410.252 938.979,409.954 938.942,410.296C938.911,410.595 938.443,410.388 938.462,410.719C937.376,411.844 937.101,413.456 937.63,414.825ZM941.827,417.284C941.62,417.315 941.411,417.329 941.202,417.324L941.21,417.33C941.436,417.583 941.622,417.441 941.827,417.284ZM940.746,417.289L940.754,417.296C940.823,417.394 940.903,417.354 940.986,417.317L940.962,417.316L940.746,417.289ZM940.28,417.2L940.283,417.204C940.343,417.317 940.434,417.284 940.526,417.255L940.28,417.2ZM942.762,417.03L942.517,417.121L942.522,417.123C942.637,417.186 942.698,417.11 942.762,417.03ZM939.521,416.916L939.863,417.068L939.916,417.085C939.75,417.108 939.585,417.14 939.521,416.918L939.521,416.916ZM943.142,416.85L943.465,416.652C943.371,416.851 943.278,417.011 943.021,416.914L943.013,416.913L943.142,416.85ZM938.486,416.157L938.558,416.234C938.72,416.39 938.891,416.529 939.073,416.648C938.781,416.613 938.464,416.609 938.486,416.167L938.486,416.157ZM937.946,415.466L938.048,415.632L938.276,415.93C938.089,415.852 937.859,415.793 937.946,415.485L937.946,415.466ZM937.788,415.182L937.785,415.209C937.745,415.315 937.839,415.344 937.899,415.389L937.846,415.303L937.788,415.182Z" />
                    <path d="M1021.17,303.069C1020.95,304.574 1020.49,306.007 1019.92,307.398C1018.76,310.252 1017.16,312.936 1015.95,315.625C1014.13,319.672 1012.09,323.581 1009.93,327.415C1006.63,333.267 1003.06,338.939 999.503,344.59C994.491,352.581 988.66,360.115 982.361,367.282C972.847,378.106 962.262,388.09 951.754,397.502C947.41,401.395 942.799,405.915 937.725,409.59C934.521,411.91 931.13,413.891 927.487,415.092C925.99,415.587 925.176,417.204 925.67,418.701C926.165,420.198 927.782,421.012 929.279,420.517C933.47,419.13 937.385,416.877 941.069,414.201C946.3,410.403 951.064,405.746 955.542,401.723C966.197,392.145 976.931,381.988 986.57,370.972C993.05,363.566 999.034,355.772 1004.18,347.516C1007.75,341.765 1011.36,336.001 1014.64,330.039C1016.84,326.042 1018.9,321.956 1020.73,317.738C1021.93,314.982 1023.51,312.222 1024.66,309.3C1025.51,307.164 1026.13,304.947 1026.3,302.601C1026.47,300.178 1025.03,299.177 1024.19,298.982C1023.66,298.856 1022.8,298.787 1021.76,299.519C1020.62,300.311 1020.34,301.878 1021.13,303.015L1021.17,303.069ZM1021.24,302.485L1021.27,302.215C1021.28,302.13 1021.35,301.99 1021.29,301.991C1020.99,301.996 1021.06,302.226 1021.24,302.485Z" />
                    <path d="M917.389,322.639C916.543,323.058 918.574,326.004 919.511,326.655C920.124,327.081 920.844,327.269 921.659,327.281C922.409,327.294 923.594,326.934 924.775,325.77C926.092,324.473 928.342,320.596 929.093,319.885C929.78,319.169 934.355,315.247 935.633,313.223C936.727,311.491 936.63,309.942 936.298,309.06C936.189,308.768 934.639,306.038 931.423,306.726L931.217,306.774C928.535,306.056 924.065,304.681 921.034,303.952C918.537,303.351 916.615,303.431 916.087,303.599C914.501,304.117 913.36,305.494 913.366,307.739C913.37,309.273 914.492,311.954 914.667,312.585C915.29,314.843 915.566,317.47 916.282,319.841C916.577,320.818 916.935,321.759 917.389,322.639ZM925.903,308.121C925.862,308.098 925.753,308.16 925.711,308.167L925.903,308.121Z" />
                    <path d="M922.646,275.802L922.65,275.796C922.693,275.731 922.515,275.665 922.388,275.592C921.283,274.954 918.612,274.004 916.16,273.97C913.803,274.057 911.432,274.865 909.482,276.313C907.596,277.714 906.064,279.637 905.279,281.9C903.555,286.798 903.508,290.918 904.61,294.606C906.197,299.914 910.25,304.38 915.587,308.833C916.681,309.769 918.329,309.64 919.264,308.546C920.2,307.452 920.071,305.805 918.977,304.869C915.392,301.738 912.371,298.721 910.778,295.248C909.307,292.043 909.26,288.464 911.042,284.089C911.474,283.043 912.29,282.217 913.212,281.599C914.127,280.986 915.207,280.641 916.277,280.644C917.692,280.575 919.2,281.239 919.908,281.443C920.476,281.606 920.836,281.704 920.966,281.705C922.767,281.722 923.671,281.203 923.94,280.735C924.353,280.02 924.987,279.35 924.692,278.397C924.591,278.072 924.748,277.119 923.749,276.482C923.424,276.168 923.047,275.941 922.646,275.802ZM919.24,276.773C918.994,277.01 918.715,277.451 918.635,278.071C918.726,277.607 918.928,277.161 919.24,276.773Z" />
                    <path d="M919.021,305.133C919.1,305.119 919.163,305.13 919.206,305.171C919.206,305.171 915.78,302.083 915.78,302.083C913.634,300.657 911.564,298.719 909.232,297.401C907.233,296.271 905.059,295.596 902.67,295.597C896.394,295.618 890.176,299.638 887.923,304.605C886.163,308.485 886.504,313.008 890.692,317.356C892.226,318.837 894.673,318.794 896.154,317.26C897.635,315.727 897.593,313.279 896.059,311.798C895.028,310.895 894.303,310.046 894.17,309.082C894.022,308.012 894.447,306.98 895.126,306.08C896.775,303.892 899.785,302.326 902.786,302.232C904.025,302.189 905.14,302.577 906.209,303.107C908.484,304.234 910.585,305.894 912.715,307.091L916.567,309.749C916.706,309.786 917.537,310.087 917.856,310.105C919.534,310.203 920.318,309.321 920.584,308.824C920.723,308.566 921.675,306.919 919.743,305.5C919.518,305.334 919.274,305.212 919.021,305.133ZM916.617,309.424C916.659,309.463 916.709,309.505 916.769,309.549L916.617,309.424Z" />
                    <path d="M973.022,293.91C974.144,294.623 974.579,296.039 975.023,297.608C975.692,299.976 975.868,302.876 975.632,305.802C975.231,310.769 973.854,315.881 971.399,317.807C969.884,318.998 968.157,318.964 966.437,318.603C963.484,317.984 960.579,316.199 957.879,315.226C956.932,314.885 956.013,314.673 955.144,314.505C953.349,313.941 951.433,314.941 950.869,316.737C950.305,318.533 951.305,320.448 953.101,321.012C953.831,321.326 954.548,321.804 955.374,322.201C959.067,323.979 963.554,325.825 967.665,325.927C970.52,325.998 973.28,325.29 975.771,323.231C979.76,319.924 982.653,310.783 982.162,302.722C981.968,299.542 981.355,296.532 980.139,294.228C978.955,291.983 977.365,290.296 975.357,289.462C974.13,288.818 972.61,289.291 971.966,290.518C971.321,291.746 971.795,293.265 973.022,293.91Z" />
                    <path d="M930.825,365.4C931.693,368.079 922.303,365.09 920.494,364.7L914.585,363.35C913.231,362.042 911.07,362.08 909.762,363.434C908.455,364.788 908.492,366.949 909.846,368.257C910.579,369.104 911.706,369.819 913.034,370.386C914.97,371.212 917.482,371.539 919.033,371.863C920.836,372.212 925.726,372.954 929.455,372.717C932.278,372.537 934.547,371.659 935.654,370.478C938.941,366.942 940.855,360.942 940.642,355.015C940.427,349.033 938.169,343.258 933.875,340.276C932.599,339.34 930.804,339.616 929.868,340.892C928.932,342.168 929.208,343.963 930.484,344.899C933.249,347.041 934.216,351.096 934.18,355.101C934.144,359.032 933.029,363.041 930.825,365.4ZM930.825,365.4L930.824,365.396C930.788,365.285 930.685,365.556 930.622,365.619L930.825,365.4Z" />
                </g>
                <g>
                    <path d="M69.97,308.849L58.351,297.484L9.669,255.601C-2.387,245.23 -10.092,236.969 -20.062,230.398C-26.618,226.076 -34.13,222.468 -44.384,219.479C-56.102,216.076 -68.929,216.901 -80.84,220.309C-93.303,223.875 -104.745,230.264 -112.82,237.393L-130.552,251.095C-144.277,262.751 -155.398,277.381 -161.293,294.18C-166.886,310.115 -167.803,328.004 -161.77,347.204C-159.262,355.184 -155.188,362.376 -150.289,369.108C-143.318,378.687 -134.657,387.328 -126.694,396.092C-120.116,403.318 -113.138,410.141 -105.958,416.745C-91.002,430.5 -75.215,443.35 -60.447,457.018C-58.972,458.383 -57.782,460.128 -56.045,461.131C-55.799,461.273 -55.592,461.263 -55.32,461.344C-54.05,462.57 -52.023,462.535 -50.797,461.265C-49.571,459.995 -49.606,457.968 -50.876,456.742C-50.968,456.469 -50.97,456.26 -51.124,456.017C-52.213,454.288 -54.059,453.172 -55.549,451.769C-70.214,437.971 -86.028,425.124 -100.964,411.326C-107.969,404.855 -114.791,398.183 -121.214,391.11C-129.005,382.547 -137.499,374.123 -144.321,364.762C-148.752,358.681 -152.471,352.203 -154.742,344.993C-160.259,327.476 -159.463,311.151 -154.373,296.605C-148.917,281.014 -138.562,267.467 -125.84,256.637L-108.019,242.821C-100.664,236.304 -90.22,230.49 -78.856,227.215C-68.244,224.157 -56.814,223.301 -46.361,226.313C-36.905,229.029 -29.965,232.309 -23.906,236.261C-14.133,242.635 -6.586,250.697 5.252,260.765L54.258,302.368C57.157,304.699 59.78,307.437 62.644,309.864C63.953,310.973 65.318,311.987 66.723,312.95C67.855,313.846 69.501,313.654 70.397,312.523C71.293,311.391 71.102,309.745 69.97,308.849Z" />
                    <path d="M67.019,309.82C66.615,309.785 66.367,309.571 65.932,309.594C64.738,309.657 63.45,310.04 61.996,310.224C58.397,310.68 54.06,310.865 49.482,310.856C39.519,310.836 28.506,310.024 21.691,309.545C19.534,309.403 17.667,311.038 17.525,313.195C17.383,315.353 19.019,317.219 21.176,317.362C29.268,317.84 43.152,319.045 54.402,318.194C59.646,317.798 64.378,317.051 67.696,315.602C67.956,315.489 68.24,315.424 68.439,315.238C68.747,314.95 68.809,314.784 69.008,314.433C70.281,313.884 70.869,312.405 70.32,311.132C69.771,309.859 68.292,309.271 67.019,309.82Z" />
                    <path d="M21.147,303.069C20.928,304.574 20.465,306.007 19.897,307.398C18.732,310.252 17.136,312.936 15.927,315.625C14.107,319.672 12.062,323.581 9.903,327.415C6.609,333.267 3.037,338.939 -0.522,344.59C-5.534,352.581 -11.365,360.115 -17.664,367.282C-27.178,378.106 -37.763,388.09 -48.271,397.502C-52.615,401.395 -57.226,405.915 -62.3,409.59C-65.504,411.91 -68.895,413.891 -72.538,415.092C-74.035,415.587 -74.849,417.204 -74.355,418.701C-73.86,420.198 -72.243,421.012 -70.746,420.517C-66.555,419.13 -62.64,416.877 -58.956,414.201C-53.725,410.403 -48.961,405.746 -44.483,401.723C-33.828,392.145 -23.094,381.988 -13.455,370.972C-6.975,363.566 -0.991,355.772 4.157,347.516C7.729,341.765 11.33,336.001 14.614,330.039C16.815,326.042 18.871,321.956 20.705,317.738C21.903,314.982 23.485,312.222 24.637,309.3C25.48,307.164 26.106,304.947 26.273,302.601C26.447,300.178 25.001,299.177 24.169,298.982C23.632,298.856 22.772,298.787 21.733,299.519C20.595,300.311 20.314,301.878 21.106,303.015L21.147,303.069ZM21.219,302.485L21.249,302.215C21.256,302.13 21.326,301.99 21.262,301.991C20.961,301.996 21.037,302.226 21.219,302.485Z" />
                    <path d="M-27.003,293.91C-25.881,294.623 -25.446,296.039 -25.002,297.608C-24.333,299.976 -24.157,302.876 -24.393,305.802C-24.794,310.769 -26.171,315.881 -28.626,317.807C-30.141,318.998 -31.868,318.964 -33.588,318.603C-36.541,317.984 -39.446,316.199 -42.146,315.226C-43.093,314.885 -44.012,314.673 -44.881,314.505C-46.677,313.941 -48.592,314.941 -49.156,316.737C-49.72,318.533 -48.72,320.448 -46.924,321.012C-46.194,321.326 -45.477,321.804 -44.651,322.201C-40.958,323.979 -36.471,325.825 -32.36,325.927C-29.505,325.998 -26.745,325.29 -24.254,323.231C-20.265,319.924 -17.372,310.783 -17.863,302.722C-18.057,299.542 -18.67,296.532 -19.886,294.228C-21.07,291.983 -22.66,290.296 -24.668,289.462C-25.895,288.818 -27.415,289.291 -28.059,290.518C-28.704,291.746 -28.23,293.265 -27.003,293.91Z" />
                </g>
            </g>
            <g>
                <path d="M335.202,896.581C334.897,896.328 334.686,896.007 334.356,895.751C331.9,893.844 329.052,891.436 326.348,888.113C317.258,876.942 308.577,858.189 304.319,840.755C302.048,831.462 300.923,822.57 302.041,815.428C302.902,809.925 304.993,805.52 309.21,803.373C311.8,802.099 314.185,803.11 316.457,805.221C321.352,809.77 325.479,818.807 329.123,829.181C337.024,851.678 341.966,880.654 341.954,888.793C341.954,891.06 343.795,892.901 346.062,892.901C348.329,892.901 350.17,891.06 350.17,888.793C350.146,879.013 343.496,840.402 332.629,816.545C329.291,809.217 325.493,803.267 321.519,799.688C316.633,795.287 311.383,794.035 305.927,796.806C299.63,799.897 295.93,806.061 294.537,814.199C293.169,822.196 293.983,832.244 296.569,842.663C301.169,861.197 311.038,880.987 321.133,892.515C324.517,896.38 327.796,899.684 331.239,901.112C331.764,901.329 332.26,901.446 332.788,901.559C334.161,902.225 335.818,901.651 336.484,900.277C337.15,898.904 336.576,897.248 335.202,896.581Z" />
                <path d="M357.469,904.017C356.071,904.991 354.351,905.928 352.526,906.811C348.147,908.93 343.17,910.688 339.979,911.762C339.474,911.933 337.848,913.548 336.712,914.19C336.544,913.576 336.715,912.648 336.745,911.638C336.823,908.994 337.274,905.908 337.309,903.43C337.334,901.644 337.161,900.113 336.738,899.065C336.279,897.748 334.837,897.052 333.521,897.511C332.204,897.969 331.508,899.411 331.967,900.728C332.186,901.458 332.007,902.543 331.878,903.791C331.549,906.949 330.855,910.845 330.951,913.706C331.028,916.004 331.727,917.789 332.766,918.862C333.711,919.818 335.057,920.245 336.695,919.941C338.441,919.617 340.998,917.768 341.884,917.478C345.259,916.364 350.51,914.507 355.156,912.319C358.697,910.651 361.884,908.755 363.827,906.842C365.335,905.935 365.436,904.047 364.428,901.748C363.64,899.95 360.474,897.676 360.043,897.366C358.498,896.323 351.918,890.403 349.661,887.469C349.664,887.17 349.614,886.924 349.402,887.014L349.444,887.131L349.484,887.284C349.545,887.343 349.612,887.406 349.656,887.463L349.661,887.469C349.661,887.757 349.611,888.093 349.61,888.226C349.61,887.9 349.568,887.584 349.484,887.284C349.371,887.177 349.276,887.079 349.356,887.033L349.402,887.014C348.903,885.574 347.534,884.541 345.925,884.541C343.891,884.541 342.239,886.192 342.239,888.226C342.243,889.072 343.082,891.244 345.152,893.502C348.403,897.048 354.49,902.307 356.06,903.341C356.164,903.405 356.829,903.675 357.469,904.017ZM336.522,914.292C336.061,913.955 335.486,913.652 335.572,914.087C335.663,914.544 336.032,914.536 336.522,914.292ZM358.534,904.728C358.497,905.076 358.397,905.517 358.611,905.341C358.824,905.165 358.755,904.95 358.534,904.728Z" />
                <path d="M313.906,823.292C314.088,823.505 314.305,823.843 314.543,824.055C315.447,824.864 316.571,825.876 317.201,826.371C317.324,826.467 317.457,826.593 317.505,826.534L317.512,826.523C317.772,826.9 318.207,827.146 318.699,827.146C319.496,827.146 320.143,826.499 320.143,825.702C320.167,825.594 320.057,824.952 319.434,824.156C318.898,823.47 317.686,822.337 316.642,821.531C316.038,821.064 315.483,820.691 315.107,820.558C314.64,820.394 314.343,820.279 314.148,820.325C313.29,820.528 312.705,820.658 312.679,821.338C312.67,821.562 312.414,822.075 312.916,822.618C313.125,823.004 313.501,823.243 313.906,823.292ZM313.653,823.092C313.621,823.088 313.591,823.099 313.564,823.129C313.533,823.162 313.602,823.113 313.653,823.092Z" />
                <path d="M316.048,827.962C316.047,828.025 316.283,828.062 316.213,828.049C316.159,828.039 316.232,827.936 316.249,827.87C316.33,827.563 316.477,827.213 316.672,826.838C317.462,825.315 318.848,823.501 319.65,822.013C320.215,820.966 320.51,820.019 320.496,819.352C320.496,818.501 319.804,817.809 318.953,817.809C318.101,817.809 317.41,818.501 317.41,819.352C317.404,819.725 317.048,820.209 316.694,820.81C315.766,822.385 314.418,824.298 313.697,825.809C313.297,826.646 312.978,827.415 313.073,828.013C313.129,828.366 313.161,828.659 313.356,828.902C313.615,829.645 314.429,830.038 315.172,829.778C315.915,829.519 316.307,828.705 316.048,827.962Z" />
            </g>
            <g>
                <path d="M829.347,522.167C829.453,522.549 829.444,522.933 829.57,523.331C830.506,526.296 831.478,529.897 831.812,534.169C832.933,548.526 829.406,568.887 822.991,585.648C819.571,594.583 815.439,602.536 810.457,607.774C806.618,611.81 802.392,614.244 797.703,613.611C794.848,613.186 793.462,610.998 792.794,607.969C791.355,601.443 793.102,591.662 796.007,581.058C802.305,558.061 814.723,531.418 819.363,524.731C820.653,522.867 820.186,520.306 818.321,519.016C816.457,517.726 813.896,518.193 812.606,520.058C807.063,528.115 790.568,563.653 785.935,589.456C784.511,597.381 784.251,604.435 785.483,609.64C786.998,616.039 790.604,620.055 796.668,620.88C803.605,621.919 810.154,618.955 815.929,613.053C821.603,607.255 826.649,598.528 830.449,588.487C837.209,570.628 840.35,548.738 838.605,533.514C838.02,528.41 837.203,523.828 835.183,520.695C834.875,520.218 834.534,519.839 834.164,519.446C833.413,518.117 831.724,517.647 830.395,518.398C829.066,519.148 828.596,520.837 829.347,522.167Z" />
                <path d="M812.272,521.436C812.099,521.68 812,521.911 812.226,521.958C811.817,523.426 812.356,525.055 813.679,525.97C815.352,527.127 817.649,526.708 818.806,525.035C819.284,524.337 819.83,522.074 819.412,519.04C818.756,514.274 816.741,506.485 816.037,504.743C815.988,504.63 815.595,504.03 815.264,503.385C816.967,503.379 818.914,503.587 820.918,503.899C825.725,504.647 830.818,506.032 834.054,506.965C834.567,507.111 836.823,506.707 838.122,506.826C837.911,507.426 837.242,508.092 836.643,508.906C835.075,511.037 832.948,513.317 831.51,515.336C830.473,516.79 829.745,518.147 829.497,519.251C829.125,520.595 829.914,521.987 831.258,522.359C832.602,522.73 833.995,521.941 834.367,520.597C834.602,519.872 835.366,519.081 836.182,518.128C838.249,515.717 841.036,512.908 842.585,510.501C843.829,508.567 844.269,506.702 844.024,505.228C843.791,503.903 842.927,502.787 841.407,502.105C839.786,501.378 836.632,501.445 835.738,501.179C832.329,500.176 826.954,498.716 821.888,497.873C818.027,497.23 814.327,496.976 811.641,497.444C809.885,497.333 808.728,498.828 808.249,501.292C807.874,503.22 809.185,506.891 809.362,507.391C810.04,509.128 812.085,517.739 812.272,521.436ZM812.312,521.69C812.414,521.395 812.559,521.111 812.744,520.842C812.668,520.951 812.436,521.199 812.272,521.436L812.272,521.443C812.276,521.516 812.296,521.606 812.312,521.69L812.257,521.837L812.226,521.958L812.275,521.968C812.367,521.976 812.343,521.841 812.312,521.69ZM838.336,506.85C838.524,507.389 838.824,507.965 839,507.559C839.186,507.131 838.878,506.928 838.336,506.85ZM814.792,502.194C815.02,501.929 815.353,501.623 815.077,501.646C814.802,501.67 814.736,501.886 814.792,502.194Z" />
                <path d="M805.172,594.557C805.144,594.278 805.157,593.877 805.082,593.567C804.798,592.388 804.45,590.916 804.213,590.151C804.167,590.002 804.129,589.823 804.055,589.844L804.044,589.848C804.044,589.391 803.827,588.941 803.422,588.661C802.766,588.208 801.866,588.372 801.413,589.027C801.332,589.103 801.057,589.693 801.116,590.702C801.167,591.572 801.52,593.193 801.919,594.449C802.151,595.177 802.394,595.799 802.629,596.122C802.92,596.523 803.099,596.787 803.285,596.86C804.105,597.181 804.661,597.407 805.069,596.863C805.204,596.683 805.706,596.407 805.602,595.675C805.65,595.238 805.477,594.828 805.172,594.557ZM805.266,594.866C805.29,594.888 805.321,594.895 805.36,594.886C805.404,594.876 805.32,594.877 805.266,594.866Z" />
                <path d="M806.066,589.498C806.103,589.447 805.93,589.282 805.98,589.333C806.019,589.372 805.9,589.415 805.849,589.459C805.608,589.666 805.287,589.87 804.914,590.067C803.398,590.87 801.226,591.574 799.72,592.341C798.66,592.881 797.878,593.493 797.511,594.049C797.026,594.749 797.202,595.711 797.902,596.196C798.602,596.68 799.564,596.505 800.049,595.804C800.266,595.501 800.833,595.306 801.467,595.013C803.125,594.245 805.323,593.439 806.775,592.607C807.58,592.145 808.28,591.694 808.542,591.149C808.697,590.826 808.838,590.567 808.815,590.256C809.025,589.498 808.579,588.712 807.82,588.503C807.062,588.294 806.276,588.739 806.066,589.498Z" />
            </g>
        </g>
    </g>
</svg>
